<?xml version="1.0" encoding="utf-8" standalone="no"?>
<!DOCTYPE svg PUBLIC "-//W3C//DTD SVG 1.1//EN"
  "http://www.w3.org/Graphics/SVG/1.1/DTD/svg11.dtd">
<svg height="288pt" version="1.1" viewBox="0 0 576 288" width="576pt" xmlns="http://www.w3.org/2000/svg" xmlns:xlink="http://www.w3.org/1999/xlink">
 <metadata>
  <rdf:RDF xmlns:cc="http://creativecommons.org/ns#" xmlns:dc="http://purl.org/dc/elements/1.1/" xmlns:rdf="http://www.w3.org/1999/02/22-rdf-syntax-ns#">
   <cc:Work>
    <dc:type rdf:resource="http://purl.org/dc/dcmitype/StillImage"/>
    <dc:date>2021-06-23T16:58:55.909164</dc:date>
    <dc:format>image/svg+xml</dc:format>
    <dc:creator>
     <cc:Agent>
      <dc:title>Matplotlib v3.4.2, https://matplotlib.org/</dc:title>
     </cc:Agent>
    </dc:creator>
   </cc:Work>
  </rdf:RDF>
 </metadata>
 <defs>
  <style type="text/css">*{stroke-linecap:butt;stroke-linejoin:round;}</style>
 </defs>
 <g id="figure_1">
  <g id="patch_1">
   <path d="M 0 288 
L 576 288 
L 576 0 
L 0 0 
z
" style="fill:none;"/>
  </g>
  <g id="axes_1">
   <g id="patch_2">
    <path d="M 62.55 241.2 
L 153.327579 241.2 
L 153.327579 26.8 
L 62.55 26.8 
z
" style="fill:#ffffff;"/>
   </g>
   <g id="PathCollection_1">
    <defs>
     <path d="M 0 -3.872983 
L -3.872983 3.872983 
L 3.872983 3.872983 
z
" id="m755daa330e" style="stroke:#0a888a;"/>
    </defs>
    <g clip-path="url(#p273c132518)">
     <use style="fill:#0a888a;stroke:#0a888a;" x="66.869226" xlink:href="#m755daa330e" y="169.868088"/>
     <use style="fill:#0a888a;stroke:#0a888a;" x="66.676254" xlink:href="#m755daa330e" y="169.889975"/>
    </g>
   </g>
   <g id="PathCollection_2">
    <defs>
     <path d="M 0 1.369306 
C 0.363144 1.369306 0.711464 1.225028 0.968246 0.968246 
C 1.225028 0.711464 1.369306 0.363144 1.369306 -0 
C 1.369306 -0.363144 1.225028 -0.711464 0.968246 -0.968246 
C 0.711464 -1.225028 0.363144 -1.369306 0 -1.369306 
C -0.363144 -1.369306 -0.711464 -1.225028 -0.968246 -0.968246 
C -1.225028 -0.711464 -1.369306 -0.363144 -1.369306 0 
C -1.369306 0.363144 -1.225028 0.711464 -0.968246 0.968246 
C -0.711464 1.225028 -0.363144 1.369306 0 1.369306 
z
" id="C0_0_fee2104624"/>
    </defs>
    <g clip-path="url(#p273c132518)">
     <use style="fill:#1f77b4;stroke:#1f77b4;" x="98.492317" xlink:href="#C0_0_fee2104624" y="36.545733"/>
    </g>
    <g clip-path="url(#p273c132518)">
     <use style="fill:#1f77b4;stroke:#1f77b4;" x="98.498936" xlink:href="#C0_0_fee2104624" y="36.545455"/>
    </g>
    <g clip-path="url(#p273c132518)">
     <use style="fill:#ff7f0e;stroke:#ff7f0e;" x="70.201102" xlink:href="#C0_0_fee2104624" y="152.598062"/>
    </g>
    <g clip-path="url(#p273c132518)">
     <use style="fill:#ff7f0e;stroke:#ff7f0e;" x="70.37999" xlink:href="#C0_0_fee2104624" y="152.991297"/>
    </g>
    <g clip-path="url(#p273c132518)">
     <use style="fill:#2ca02c;stroke:#2ca02c;" x="75.553214" xlink:href="#C0_0_fee2104624" y="173.947154"/>
    </g>
    <g clip-path="url(#p273c132518)">
     <use style="fill:#2ca02c;stroke:#2ca02c;" x="75.553214" xlink:href="#C0_0_fee2104624" y="173.947154"/>
    </g>
    <g clip-path="url(#p273c132518)">
     <use style="fill:#2ca02c;stroke:#2ca02c;" x="75.736522" xlink:href="#C0_0_fee2104624" y="174.543666"/>
    </g>
    <g clip-path="url(#p273c132518)">
     <use style="fill:#d62728;stroke:#d62728;" x="71.608378" xlink:href="#C0_0_fee2104624" y="192.255529"/>
    </g>
    <g clip-path="url(#p273c132518)">
     <use style="fill:#d62728;stroke:#d62728;" x="71.603301" xlink:href="#C0_0_fee2104624" y="192.258382"/>
    </g>
    <g clip-path="url(#p273c132518)">
     <use style="fill:#9467bd;stroke:#9467bd;" x="70.165884" xlink:href="#C0_0_fee2104624" y="152.477149"/>
    </g>
    <g clip-path="url(#p273c132518)">
     <use style="fill:#9467bd;stroke:#9467bd;" x="70.274907" xlink:href="#C0_0_fee2104624" y="152.483146"/>
    </g>
   </g>
   <g id="PathCollection_3">
    <defs>
     <path d="M 0 -3.872983 
L -0.869539 -1.196818 
L -3.683426 -1.196818 
L -1.406944 0.457144 
L -2.276482 3.133309 
L -0 1.479348 
L 2.276482 3.133309 
L 1.406944 0.457144 
L 3.683426 -1.196818 
L 0.869539 -1.196818 
z
" id="m46c1f79b08" style="stroke:#e50000;"/>
    </defs>
    <g clip-path="url(#p273c132518)">
     <use style="fill:#e50000;stroke:#e50000;" x="68.846784" xlink:href="#m46c1f79b08" y="105.531547"/>
     <use style="fill:#e50000;stroke:#e50000;" x="68.830819" xlink:href="#m46c1f79b08" y="105.40413"/>
    </g>
   </g>
   <g id="PathCollection_4">
    <defs>
     <path d="M -0 3.872983 
L 3.872983 -3.872983 
L -3.872983 -3.872983 
z
" id="mfa9d7dbd53" style="stroke:#c65102;"/>
    </defs>
    <g clip-path="url(#p273c132518)">
     <use style="fill:#c65102;stroke:#c65102;" x="70.823834" xlink:href="#mfa9d7dbd53" y="72.472718"/>
     <use style="fill:#c65102;stroke:#c65102;" x="70.823834" xlink:href="#mfa9d7dbd53" y="72.472718"/>
    </g>
   </g>
   <g id="matplotlib.axis_1">
    <g id="xtick_1">
     <g id="line2d_1">
      <defs>
       <path d="M 0 0 
L 0 3.5 
" id="medf48e227c" style="stroke:#000000;stroke-width:0.8;"/>
      </defs>
      <g>
       <use style="stroke:#000000;stroke-width:0.8;" x="82.808076" xlink:href="#medf48e227c" y="241.2"/>
      </g>
     </g>
     <g id="text_1">
      <!-- 60 -->
      <g transform="translate(76.445576 255.798438)scale(0.1 -0.1)">
       <defs>
        <path d="M 2113 2584 
Q 1688 2584 1439 2293 
Q 1191 2003 1191 1497 
Q 1191 994 1439 701 
Q 1688 409 2113 409 
Q 2538 409 2786 701 
Q 3034 994 3034 1497 
Q 3034 2003 2786 2293 
Q 2538 2584 2113 2584 
z
M 3366 4563 
L 3366 3988 
Q 3128 4100 2886 4159 
Q 2644 4219 2406 4219 
Q 1781 4219 1451 3797 
Q 1122 3375 1075 2522 
Q 1259 2794 1537 2939 
Q 1816 3084 2150 3084 
Q 2853 3084 3261 2657 
Q 3669 2231 3669 1497 
Q 3669 778 3244 343 
Q 2819 -91 2113 -91 
Q 1303 -91 875 529 
Q 447 1150 447 2328 
Q 447 3434 972 4092 
Q 1497 4750 2381 4750 
Q 2619 4750 2861 4703 
Q 3103 4656 3366 4563 
z
" id="DejaVuSans-36" transform="scale(0.015625)"/>
        <path d="M 2034 4250 
Q 1547 4250 1301 3770 
Q 1056 3291 1056 2328 
Q 1056 1369 1301 889 
Q 1547 409 2034 409 
Q 2525 409 2770 889 
Q 3016 1369 3016 2328 
Q 3016 3291 2770 3770 
Q 2525 4250 2034 4250 
z
M 2034 4750 
Q 2819 4750 3233 4129 
Q 3647 3509 3647 2328 
Q 3647 1150 3233 529 
Q 2819 -91 2034 -91 
Q 1250 -91 836 529 
Q 422 1150 422 2328 
Q 422 3509 836 4129 
Q 1250 4750 2034 4750 
z
" id="DejaVuSans-30" transform="scale(0.015625)"/>
       </defs>
       <use xlink:href="#DejaVuSans-36"/>
       <use x="63.623047" xlink:href="#DejaVuSans-30"/>
      </g>
     </g>
    </g>
    <g id="xtick_2">
     <g id="line2d_2">
      <g>
       <use style="stroke:#000000;stroke-width:0.8;" x="115.744399" xlink:href="#medf48e227c" y="241.2"/>
      </g>
     </g>
     <g id="text_2">
      <!-- 70 -->
      <g transform="translate(109.381899 255.798438)scale(0.1 -0.1)">
       <defs>
        <path d="M 525 4666 
L 3525 4666 
L 3525 4397 
L 1831 0 
L 1172 0 
L 2766 4134 
L 525 4134 
L 525 4666 
z
" id="DejaVuSans-37" transform="scale(0.015625)"/>
       </defs>
       <use xlink:href="#DejaVuSans-37"/>
       <use x="63.623047" xlink:href="#DejaVuSans-30"/>
      </g>
     </g>
    </g>
    <g id="xtick_3">
     <g id="line2d_3">
      <g>
       <use style="stroke:#000000;stroke-width:0.8;" x="148.680722" xlink:href="#medf48e227c" y="241.2"/>
      </g>
     </g>
     <g id="text_3">
      <!-- 80 -->
      <g transform="translate(142.318222 255.798438)scale(0.1 -0.1)">
       <defs>
        <path d="M 2034 2216 
Q 1584 2216 1326 1975 
Q 1069 1734 1069 1313 
Q 1069 891 1326 650 
Q 1584 409 2034 409 
Q 2484 409 2743 651 
Q 3003 894 3003 1313 
Q 3003 1734 2745 1975 
Q 2488 2216 2034 2216 
z
M 1403 2484 
Q 997 2584 770 2862 
Q 544 3141 544 3541 
Q 544 4100 942 4425 
Q 1341 4750 2034 4750 
Q 2731 4750 3128 4425 
Q 3525 4100 3525 3541 
Q 3525 3141 3298 2862 
Q 3072 2584 2669 2484 
Q 3125 2378 3379 2068 
Q 3634 1759 3634 1313 
Q 3634 634 3220 271 
Q 2806 -91 2034 -91 
Q 1263 -91 848 271 
Q 434 634 434 1313 
Q 434 1759 690 2068 
Q 947 2378 1403 2484 
z
M 1172 3481 
Q 1172 3119 1398 2916 
Q 1625 2713 2034 2713 
Q 2441 2713 2670 2916 
Q 2900 3119 2900 3481 
Q 2900 3844 2670 4047 
Q 2441 4250 2034 4250 
Q 1625 4250 1398 4047 
Q 1172 3844 1172 3481 
z
" id="DejaVuSans-38" transform="scale(0.015625)"/>
       </defs>
       <use xlink:href="#DejaVuSans-38"/>
       <use x="63.623047" xlink:href="#DejaVuSans-30"/>
      </g>
     </g>
    </g>
    <g id="text_4">
     <!-- Volume ($\AA^3$) -->
     <g transform="translate(77.18879 270.498438)scale(0.1 -0.1)">
      <defs>
       <path d="M 1831 0 
L 50 4666 
L 709 4666 
L 2188 738 
L 3669 4666 
L 4325 4666 
L 2547 0 
L 1831 0 
z
" id="DejaVuSans-56" transform="scale(0.015625)"/>
       <path d="M 1959 3097 
Q 1497 3097 1228 2736 
Q 959 2375 959 1747 
Q 959 1119 1226 758 
Q 1494 397 1959 397 
Q 2419 397 2687 759 
Q 2956 1122 2956 1747 
Q 2956 2369 2687 2733 
Q 2419 3097 1959 3097 
z
M 1959 3584 
Q 2709 3584 3137 3096 
Q 3566 2609 3566 1747 
Q 3566 888 3137 398 
Q 2709 -91 1959 -91 
Q 1206 -91 779 398 
Q 353 888 353 1747 
Q 353 2609 779 3096 
Q 1206 3584 1959 3584 
z
" id="DejaVuSans-6f" transform="scale(0.015625)"/>
       <path d="M 603 4863 
L 1178 4863 
L 1178 0 
L 603 0 
L 603 4863 
z
" id="DejaVuSans-6c" transform="scale(0.015625)"/>
       <path d="M 544 1381 
L 544 3500 
L 1119 3500 
L 1119 1403 
Q 1119 906 1312 657 
Q 1506 409 1894 409 
Q 2359 409 2629 706 
Q 2900 1003 2900 1516 
L 2900 3500 
L 3475 3500 
L 3475 0 
L 2900 0 
L 2900 538 
Q 2691 219 2414 64 
Q 2138 -91 1772 -91 
Q 1169 -91 856 284 
Q 544 659 544 1381 
z
M 1991 3584 
L 1991 3584 
z
" id="DejaVuSans-75" transform="scale(0.015625)"/>
       <path d="M 3328 2828 
Q 3544 3216 3844 3400 
Q 4144 3584 4550 3584 
Q 5097 3584 5394 3201 
Q 5691 2819 5691 2113 
L 5691 0 
L 5113 0 
L 5113 2094 
Q 5113 2597 4934 2840 
Q 4756 3084 4391 3084 
Q 3944 3084 3684 2787 
Q 3425 2491 3425 1978 
L 3425 0 
L 2847 0 
L 2847 2094 
Q 2847 2600 2669 2842 
Q 2491 3084 2119 3084 
Q 1678 3084 1418 2786 
Q 1159 2488 1159 1978 
L 1159 0 
L 581 0 
L 581 3500 
L 1159 3500 
L 1159 2956 
Q 1356 3278 1631 3431 
Q 1906 3584 2284 3584 
Q 2666 3584 2933 3390 
Q 3200 3197 3328 2828 
z
" id="DejaVuSans-6d" transform="scale(0.015625)"/>
       <path d="M 3597 1894 
L 3597 1613 
L 953 1613 
Q 991 1019 1311 708 
Q 1631 397 2203 397 
Q 2534 397 2845 478 
Q 3156 559 3463 722 
L 3463 178 
Q 3153 47 2828 -22 
Q 2503 -91 2169 -91 
Q 1331 -91 842 396 
Q 353 884 353 1716 
Q 353 2575 817 3079 
Q 1281 3584 2069 3584 
Q 2775 3584 3186 3129 
Q 3597 2675 3597 1894 
z
M 3022 2063 
Q 3016 2534 2758 2815 
Q 2500 3097 2075 3097 
Q 1594 3097 1305 2825 
Q 1016 2553 972 2059 
L 3022 2063 
z
" id="DejaVuSans-65" transform="scale(0.015625)"/>
       <path id="DejaVuSans-20" transform="scale(0.015625)"/>
       <path d="M 1984 4856 
Q 1566 4138 1362 3434 
Q 1159 2731 1159 2009 
Q 1159 1288 1364 580 
Q 1569 -128 1984 -844 
L 1484 -844 
Q 1016 -109 783 600 
Q 550 1309 550 2009 
Q 550 2706 781 3412 
Q 1013 4119 1484 4856 
L 1984 4856 
z
" id="DejaVuSans-28" transform="scale(0.015625)"/>
       <path d="M 3188 5081 
Q 3188 5278 3048 5417 
Q 2909 5556 2713 5556 
Q 2513 5556 2377 5420 
Q 2241 5284 2241 5081 
Q 2241 4884 2377 4746 
Q 2513 4609 2713 4609 
Q 2909 4609 3048 4746 
Q 3188 4884 3188 5081 
z
M 2203 4397 
Q 2034 4513 1945 4689 
Q 1856 4866 1856 5081 
Q 1856 5438 2106 5689 
Q 2356 5941 2713 5941 
Q 3069 5941 3320 5689 
Q 3572 5438 3572 5081 
Q 3572 4834 3458 4643 
Q 3344 4453 3128 4341 
L 3938 0 
L 3278 0 
L 3084 1197 
L 984 1197 
L 325 0 
L -341 0 
L 2203 4397 
z
M 2584 4044 
L 1275 1722 
L 2988 1722 
L 2584 4044 
z
" id="DejaVuSans-Oblique-c5" transform="scale(0.015625)"/>
       <path d="M 2597 2516 
Q 3050 2419 3304 2112 
Q 3559 1806 3559 1356 
Q 3559 666 3084 287 
Q 2609 -91 1734 -91 
Q 1441 -91 1130 -33 
Q 819 25 488 141 
L 488 750 
Q 750 597 1062 519 
Q 1375 441 1716 441 
Q 2309 441 2620 675 
Q 2931 909 2931 1356 
Q 2931 1769 2642 2001 
Q 2353 2234 1838 2234 
L 1294 2234 
L 1294 2753 
L 1863 2753 
Q 2328 2753 2575 2939 
Q 2822 3125 2822 3475 
Q 2822 3834 2567 4026 
Q 2313 4219 1838 4219 
Q 1578 4219 1281 4162 
Q 984 4106 628 3988 
L 628 4550 
Q 988 4650 1302 4700 
Q 1616 4750 1894 4750 
Q 2613 4750 3031 4423 
Q 3450 4097 3450 3541 
Q 3450 3153 3228 2886 
Q 3006 2619 2597 2516 
z
" id="DejaVuSans-33" transform="scale(0.015625)"/>
       <path d="M 513 4856 
L 1013 4856 
Q 1481 4119 1714 3412 
Q 1947 2706 1947 2009 
Q 1947 1309 1714 600 
Q 1481 -109 1013 -844 
L 513 -844 
Q 928 -128 1133 580 
Q 1338 1288 1338 2009 
Q 1338 2731 1133 3434 
Q 928 4138 513 4856 
z
" id="DejaVuSans-29" transform="scale(0.015625)"/>
      </defs>
      <use transform="translate(0 0.171875)" xlink:href="#DejaVuSans-56"/>
      <use transform="translate(68.408203 0.171875)" xlink:href="#DejaVuSans-6f"/>
      <use transform="translate(129.589844 0.171875)" xlink:href="#DejaVuSans-6c"/>
      <use transform="translate(157.373047 0.171875)" xlink:href="#DejaVuSans-75"/>
      <use transform="translate(220.751953 0.171875)" xlink:href="#DejaVuSans-6d"/>
      <use transform="translate(318.164062 0.171875)" xlink:href="#DejaVuSans-65"/>
      <use transform="translate(379.6875 0.171875)" xlink:href="#DejaVuSans-20"/>
      <use transform="translate(411.474609 0.171875)" xlink:href="#DejaVuSans-28"/>
      <use transform="translate(450.488281 0.171875)" xlink:href="#DejaVuSans-Oblique-c5"/>
      <use transform="translate(528.702318 38.453125)scale(0.7)" xlink:href="#DejaVuSans-33"/>
      <use transform="translate(575.972826 0.171875)" xlink:href="#DejaVuSans-29"/>
     </g>
    </g>
   </g>
   <g id="matplotlib.axis_2">
    <g id="ytick_1">
     <g id="line2d_4">
      <defs>
       <path d="M 0 0 
L -3.5 0 
" id="mcb18972dc7" style="stroke:#000000;stroke-width:0.8;"/>
      </defs>
      <g>
       <use style="stroke:#000000;stroke-width:0.8;" x="62.55" xlink:href="#mcb18972dc7" y="219.727036"/>
      </g>
     </g>
     <g id="text_5">
      <!-- −0.02 -->
      <g transform="translate(24.904688 223.526254)scale(0.1 -0.1)">
       <defs>
        <path d="M 678 2272 
L 4684 2272 
L 4684 1741 
L 678 1741 
L 678 2272 
z
" id="DejaVuSans-2212" transform="scale(0.015625)"/>
        <path d="M 684 794 
L 1344 794 
L 1344 0 
L 684 0 
L 684 794 
z
" id="DejaVuSans-2e" transform="scale(0.015625)"/>
        <path d="M 1228 531 
L 3431 531 
L 3431 0 
L 469 0 
L 469 531 
Q 828 903 1448 1529 
Q 2069 2156 2228 2338 
Q 2531 2678 2651 2914 
Q 2772 3150 2772 3378 
Q 2772 3750 2511 3984 
Q 2250 4219 1831 4219 
Q 1534 4219 1204 4116 
Q 875 4013 500 3803 
L 500 4441 
Q 881 4594 1212 4672 
Q 1544 4750 1819 4750 
Q 2544 4750 2975 4387 
Q 3406 4025 3406 3419 
Q 3406 3131 3298 2873 
Q 3191 2616 2906 2266 
Q 2828 2175 2409 1742 
Q 1991 1309 1228 531 
z
" id="DejaVuSans-32" transform="scale(0.015625)"/>
       </defs>
       <use xlink:href="#DejaVuSans-2212"/>
       <use x="83.789062" xlink:href="#DejaVuSans-30"/>
       <use x="147.412109" xlink:href="#DejaVuSans-2e"/>
       <use x="179.199219" xlink:href="#DejaVuSans-30"/>
       <use x="242.822266" xlink:href="#DejaVuSans-32"/>
      </g>
     </g>
    </g>
    <g id="ytick_2">
     <g id="line2d_5">
      <g>
       <use style="stroke:#000000;stroke-width:0.8;" x="62.55" xlink:href="#mcb18972dc7" y="194.808505"/>
      </g>
     </g>
     <g id="text_6">
      <!-- −0.01 -->
      <g transform="translate(24.904688 198.607724)scale(0.1 -0.1)">
       <defs>
        <path d="M 794 531 
L 1825 531 
L 1825 4091 
L 703 3866 
L 703 4441 
L 1819 4666 
L 2450 4666 
L 2450 531 
L 3481 531 
L 3481 0 
L 794 0 
L 794 531 
z
" id="DejaVuSans-31" transform="scale(0.015625)"/>
       </defs>
       <use xlink:href="#DejaVuSans-2212"/>
       <use x="83.789062" xlink:href="#DejaVuSans-30"/>
       <use x="147.412109" xlink:href="#DejaVuSans-2e"/>
       <use x="179.199219" xlink:href="#DejaVuSans-30"/>
       <use x="242.822266" xlink:href="#DejaVuSans-31"/>
      </g>
     </g>
    </g>
    <g id="ytick_3">
     <g id="line2d_6">
      <g>
       <use style="stroke:#000000;stroke-width:0.8;" x="62.55" xlink:href="#mcb18972dc7" y="169.889975"/>
      </g>
     </g>
     <g id="text_7">
      <!-- 0.00 -->
      <g transform="translate(33.284375 173.689193)scale(0.1 -0.1)">
       <use xlink:href="#DejaVuSans-30"/>
       <use x="63.623047" xlink:href="#DejaVuSans-2e"/>
       <use x="95.410156" xlink:href="#DejaVuSans-30"/>
       <use x="159.033203" xlink:href="#DejaVuSans-30"/>
      </g>
     </g>
    </g>
    <g id="ytick_4">
     <g id="line2d_7">
      <g>
       <use style="stroke:#000000;stroke-width:0.8;" x="62.55" xlink:href="#mcb18972dc7" y="144.971444"/>
      </g>
     </g>
     <g id="text_8">
      <!-- 0.01 -->
      <g transform="translate(33.284375 148.770663)scale(0.1 -0.1)">
       <use xlink:href="#DejaVuSans-30"/>
       <use x="63.623047" xlink:href="#DejaVuSans-2e"/>
       <use x="95.410156" xlink:href="#DejaVuSans-30"/>
       <use x="159.033203" xlink:href="#DejaVuSans-31"/>
      </g>
     </g>
    </g>
    <g id="ytick_5">
     <g id="line2d_8">
      <g>
       <use style="stroke:#000000;stroke-width:0.8;" x="62.55" xlink:href="#mcb18972dc7" y="120.052914"/>
      </g>
     </g>
     <g id="text_9">
      <!-- 0.02 -->
      <g transform="translate(33.284375 123.852132)scale(0.1 -0.1)">
       <use xlink:href="#DejaVuSans-30"/>
       <use x="63.623047" xlink:href="#DejaVuSans-2e"/>
       <use x="95.410156" xlink:href="#DejaVuSans-30"/>
       <use x="159.033203" xlink:href="#DejaVuSans-32"/>
      </g>
     </g>
    </g>
    <g id="ytick_6">
     <g id="line2d_9">
      <g>
       <use style="stroke:#000000;stroke-width:0.8;" x="62.55" xlink:href="#mcb18972dc7" y="95.134383"/>
      </g>
     </g>
     <g id="text_10">
      <!-- 0.03 -->
      <g transform="translate(33.284375 98.933602)scale(0.1 -0.1)">
       <use xlink:href="#DejaVuSans-30"/>
       <use x="63.623047" xlink:href="#DejaVuSans-2e"/>
       <use x="95.410156" xlink:href="#DejaVuSans-30"/>
       <use x="159.033203" xlink:href="#DejaVuSans-33"/>
      </g>
     </g>
    </g>
    <g id="ytick_7">
     <g id="line2d_10">
      <g>
       <use style="stroke:#000000;stroke-width:0.8;" x="62.55" xlink:href="#mcb18972dc7" y="70.215853"/>
      </g>
     </g>
     <g id="text_11">
      <!-- 0.04 -->
      <g transform="translate(33.284375 74.015071)scale(0.1 -0.1)">
       <defs>
        <path d="M 2419 4116 
L 825 1625 
L 2419 1625 
L 2419 4116 
z
M 2253 4666 
L 3047 4666 
L 3047 1625 
L 3713 1625 
L 3713 1100 
L 3047 1100 
L 3047 0 
L 2419 0 
L 2419 1100 
L 313 1100 
L 313 1709 
L 2253 4666 
z
" id="DejaVuSans-34" transform="scale(0.015625)"/>
       </defs>
       <use xlink:href="#DejaVuSans-30"/>
       <use x="63.623047" xlink:href="#DejaVuSans-2e"/>
       <use x="95.410156" xlink:href="#DejaVuSans-30"/>
       <use x="159.033203" xlink:href="#DejaVuSans-34"/>
      </g>
     </g>
    </g>
    <g id="ytick_8">
     <g id="line2d_11">
      <g>
       <use style="stroke:#000000;stroke-width:0.8;" x="62.55" xlink:href="#mcb18972dc7" y="45.297322"/>
      </g>
     </g>
     <g id="text_12">
      <!-- 0.05 -->
      <g transform="translate(33.284375 49.096541)scale(0.1 -0.1)">
       <defs>
        <path d="M 691 4666 
L 3169 4666 
L 3169 4134 
L 1269 4134 
L 1269 2991 
Q 1406 3038 1543 3061 
Q 1681 3084 1819 3084 
Q 2600 3084 3056 2656 
Q 3513 2228 3513 1497 
Q 3513 744 3044 326 
Q 2575 -91 1722 -91 
Q 1428 -91 1123 -41 
Q 819 9 494 109 
L 494 744 
Q 775 591 1075 516 
Q 1375 441 1709 441 
Q 2250 441 2565 725 
Q 2881 1009 2881 1497 
Q 2881 1984 2565 2268 
Q 2250 2553 1709 2553 
Q 1456 2553 1204 2497 
Q 953 2441 691 2322 
L 691 4666 
z
" id="DejaVuSans-35" transform="scale(0.015625)"/>
       </defs>
       <use xlink:href="#DejaVuSans-30"/>
       <use x="63.623047" xlink:href="#DejaVuSans-2e"/>
       <use x="95.410156" xlink:href="#DejaVuSans-30"/>
       <use x="159.033203" xlink:href="#DejaVuSans-35"/>
      </g>
     </g>
    </g>
    <g id="text_13">
     <!-- Relative energy (eV/atom) -->
     <g transform="translate(18.825 199.802344)rotate(-90)scale(0.1 -0.1)">
      <defs>
       <path d="M 2841 2188 
Q 3044 2119 3236 1894 
Q 3428 1669 3622 1275 
L 4263 0 
L 3584 0 
L 2988 1197 
Q 2756 1666 2539 1819 
Q 2322 1972 1947 1972 
L 1259 1972 
L 1259 0 
L 628 0 
L 628 4666 
L 2053 4666 
Q 2853 4666 3247 4331 
Q 3641 3997 3641 3322 
Q 3641 2881 3436 2590 
Q 3231 2300 2841 2188 
z
M 1259 4147 
L 1259 2491 
L 2053 2491 
Q 2509 2491 2742 2702 
Q 2975 2913 2975 3322 
Q 2975 3731 2742 3939 
Q 2509 4147 2053 4147 
L 1259 4147 
z
" id="DejaVuSans-52" transform="scale(0.015625)"/>
       <path d="M 2194 1759 
Q 1497 1759 1228 1600 
Q 959 1441 959 1056 
Q 959 750 1161 570 
Q 1363 391 1709 391 
Q 2188 391 2477 730 
Q 2766 1069 2766 1631 
L 2766 1759 
L 2194 1759 
z
M 3341 1997 
L 3341 0 
L 2766 0 
L 2766 531 
Q 2569 213 2275 61 
Q 1981 -91 1556 -91 
Q 1019 -91 701 211 
Q 384 513 384 1019 
Q 384 1609 779 1909 
Q 1175 2209 1959 2209 
L 2766 2209 
L 2766 2266 
Q 2766 2663 2505 2880 
Q 2244 3097 1772 3097 
Q 1472 3097 1187 3025 
Q 903 2953 641 2809 
L 641 3341 
Q 956 3463 1253 3523 
Q 1550 3584 1831 3584 
Q 2591 3584 2966 3190 
Q 3341 2797 3341 1997 
z
" id="DejaVuSans-61" transform="scale(0.015625)"/>
       <path d="M 1172 4494 
L 1172 3500 
L 2356 3500 
L 2356 3053 
L 1172 3053 
L 1172 1153 
Q 1172 725 1289 603 
Q 1406 481 1766 481 
L 2356 481 
L 2356 0 
L 1766 0 
Q 1100 0 847 248 
Q 594 497 594 1153 
L 594 3053 
L 172 3053 
L 172 3500 
L 594 3500 
L 594 4494 
L 1172 4494 
z
" id="DejaVuSans-74" transform="scale(0.015625)"/>
       <path d="M 603 3500 
L 1178 3500 
L 1178 0 
L 603 0 
L 603 3500 
z
M 603 4863 
L 1178 4863 
L 1178 4134 
L 603 4134 
L 603 4863 
z
" id="DejaVuSans-69" transform="scale(0.015625)"/>
       <path d="M 191 3500 
L 800 3500 
L 1894 563 
L 2988 3500 
L 3597 3500 
L 2284 0 
L 1503 0 
L 191 3500 
z
" id="DejaVuSans-76" transform="scale(0.015625)"/>
       <path d="M 3513 2113 
L 3513 0 
L 2938 0 
L 2938 2094 
Q 2938 2591 2744 2837 
Q 2550 3084 2163 3084 
Q 1697 3084 1428 2787 
Q 1159 2491 1159 1978 
L 1159 0 
L 581 0 
L 581 3500 
L 1159 3500 
L 1159 2956 
Q 1366 3272 1645 3428 
Q 1925 3584 2291 3584 
Q 2894 3584 3203 3211 
Q 3513 2838 3513 2113 
z
" id="DejaVuSans-6e" transform="scale(0.015625)"/>
       <path d="M 2631 2963 
Q 2534 3019 2420 3045 
Q 2306 3072 2169 3072 
Q 1681 3072 1420 2755 
Q 1159 2438 1159 1844 
L 1159 0 
L 581 0 
L 581 3500 
L 1159 3500 
L 1159 2956 
Q 1341 3275 1631 3429 
Q 1922 3584 2338 3584 
Q 2397 3584 2469 3576 
Q 2541 3569 2628 3553 
L 2631 2963 
z
" id="DejaVuSans-72" transform="scale(0.015625)"/>
       <path d="M 2906 1791 
Q 2906 2416 2648 2759 
Q 2391 3103 1925 3103 
Q 1463 3103 1205 2759 
Q 947 2416 947 1791 
Q 947 1169 1205 825 
Q 1463 481 1925 481 
Q 2391 481 2648 825 
Q 2906 1169 2906 1791 
z
M 3481 434 
Q 3481 -459 3084 -895 
Q 2688 -1331 1869 -1331 
Q 1566 -1331 1297 -1286 
Q 1028 -1241 775 -1147 
L 775 -588 
Q 1028 -725 1275 -790 
Q 1522 -856 1778 -856 
Q 2344 -856 2625 -561 
Q 2906 -266 2906 331 
L 2906 616 
Q 2728 306 2450 153 
Q 2172 0 1784 0 
Q 1141 0 747 490 
Q 353 981 353 1791 
Q 353 2603 747 3093 
Q 1141 3584 1784 3584 
Q 2172 3584 2450 3431 
Q 2728 3278 2906 2969 
L 2906 3500 
L 3481 3500 
L 3481 434 
z
" id="DejaVuSans-67" transform="scale(0.015625)"/>
       <path d="M 2059 -325 
Q 1816 -950 1584 -1140 
Q 1353 -1331 966 -1331 
L 506 -1331 
L 506 -850 
L 844 -850 
Q 1081 -850 1212 -737 
Q 1344 -625 1503 -206 
L 1606 56 
L 191 3500 
L 800 3500 
L 1894 763 
L 2988 3500 
L 3597 3500 
L 2059 -325 
z
" id="DejaVuSans-79" transform="scale(0.015625)"/>
       <path d="M 1625 4666 
L 2156 4666 
L 531 -594 
L 0 -594 
L 1625 4666 
z
" id="DejaVuSans-2f" transform="scale(0.015625)"/>
      </defs>
      <use xlink:href="#DejaVuSans-52"/>
      <use x="64.982422" xlink:href="#DejaVuSans-65"/>
      <use x="126.505859" xlink:href="#DejaVuSans-6c"/>
      <use x="154.289062" xlink:href="#DejaVuSans-61"/>
      <use x="215.568359" xlink:href="#DejaVuSans-74"/>
      <use x="254.777344" xlink:href="#DejaVuSans-69"/>
      <use x="282.560547" xlink:href="#DejaVuSans-76"/>
      <use x="341.740234" xlink:href="#DejaVuSans-65"/>
      <use x="403.263672" xlink:href="#DejaVuSans-20"/>
      <use x="435.050781" xlink:href="#DejaVuSans-65"/>
      <use x="496.574219" xlink:href="#DejaVuSans-6e"/>
      <use x="559.953125" xlink:href="#DejaVuSans-65"/>
      <use x="621.476562" xlink:href="#DejaVuSans-72"/>
      <use x="660.839844" xlink:href="#DejaVuSans-67"/>
      <use x="724.316406" xlink:href="#DejaVuSans-79"/>
      <use x="783.496094" xlink:href="#DejaVuSans-20"/>
      <use x="815.283203" xlink:href="#DejaVuSans-28"/>
      <use x="854.296875" xlink:href="#DejaVuSans-65"/>
      <use x="915.820312" xlink:href="#DejaVuSans-56"/>
      <use x="984.228516" xlink:href="#DejaVuSans-2f"/>
      <use x="1017.919922" xlink:href="#DejaVuSans-61"/>
      <use x="1079.199219" xlink:href="#DejaVuSans-74"/>
      <use x="1118.408203" xlink:href="#DejaVuSans-6f"/>
      <use x="1179.589844" xlink:href="#DejaVuSans-6d"/>
      <use x="1277.001953" xlink:href="#DejaVuSans-29"/>
     </g>
    </g>
   </g>
   <g id="patch_3">
    <path d="M 62.55 241.2 
L 62.55 26.8 
" style="fill:none;stroke:#000000;stroke-linecap:square;stroke-linejoin:miter;stroke-width:0.8;"/>
   </g>
   <g id="patch_4">
    <path d="M 153.327579 241.2 
L 153.327579 26.8 
" style="fill:none;stroke:#000000;stroke-linecap:square;stroke-linejoin:miter;stroke-width:0.8;"/>
   </g>
   <g id="patch_5">
    <path d="M 62.55 241.2 
L 153.327579 241.2 
" style="fill:none;stroke:#000000;stroke-linecap:square;stroke-linejoin:miter;stroke-width:0.8;"/>
   </g>
   <g id="patch_6">
    <path d="M 62.55 26.8 
L 153.327579 26.8 
" style="fill:none;stroke:#000000;stroke-linecap:square;stroke-linejoin:miter;stroke-width:0.8;"/>
   </g>
   <g id="text_14">
    <!-- LDA -->
    <g transform="translate(95.97629 20.8)scale(0.12 -0.12)">
     <defs>
      <path d="M 628 4666 
L 1259 4666 
L 1259 531 
L 3531 531 
L 3531 0 
L 628 0 
L 628 4666 
z
" id="DejaVuSans-4c" transform="scale(0.015625)"/>
      <path d="M 1259 4147 
L 1259 519 
L 2022 519 
Q 2988 519 3436 956 
Q 3884 1394 3884 2338 
Q 3884 3275 3436 3711 
Q 2988 4147 2022 4147 
L 1259 4147 
z
M 628 4666 
L 1925 4666 
Q 3281 4666 3915 4102 
Q 4550 3538 4550 2338 
Q 4550 1131 3912 565 
Q 3275 0 1925 0 
L 628 0 
L 628 4666 
z
" id="DejaVuSans-44" transform="scale(0.015625)"/>
      <path d="M 2188 4044 
L 1331 1722 
L 3047 1722 
L 2188 4044 
z
M 1831 4666 
L 2547 4666 
L 4325 0 
L 3669 0 
L 3244 1197 
L 1141 1197 
L 716 0 
L 50 0 
L 1831 4666 
z
" id="DejaVuSans-41" transform="scale(0.015625)"/>
     </defs>
     <use xlink:href="#DejaVuSans-4c"/>
     <use x="55.712891" xlink:href="#DejaVuSans-44"/>
     <use x="130.964844" xlink:href="#DejaVuSans-41"/>
    </g>
   </g>
  </g>
  <g id="axes_2">
   <g id="patch_7">
    <path d="M 169.034974 241.2 
L 259.812553 241.2 
L 259.812553 26.8 
L 169.034974 26.8 
z
" style="fill:#ffffff;"/>
   </g>
   <g id="PathCollection_5">
    <g clip-path="url(#pb1f6844d0e)">
     <use style="fill:#0a888a;stroke:#0a888a;" x="192.032018" xlink:href="#m755daa330e" y="169.889975"/>
     <use style="fill:#0a888a;stroke:#0a888a;" x="191.992916" xlink:href="#m755daa330e" y="169.866005"/>
    </g>
   </g>
   <g id="PathCollection_6">
    <defs>
     <path d="M 0 1.369306 
C 0.363144 1.369306 0.711464 1.225028 0.968246 0.968246 
C 1.225028 0.711464 1.369306 0.363144 1.369306 -0 
C 1.369306 -0.363144 1.225028 -0.711464 0.968246 -0.968246 
C 0.711464 -1.225028 0.363144 -1.369306 0 -1.369306 
C -0.363144 -1.369306 -0.711464 -1.225028 -0.968246 -0.968246 
C -1.225028 -0.711464 -1.369306 -0.363144 -1.369306 0 
C -1.369306 0.363144 -1.225028 0.711464 -0.968246 0.968246 
C -0.711464 1.225028 -0.363144 1.369306 0 1.369306 
z
" id="C1_0_9cca18f638"/>
    </defs>
    <g clip-path="url(#pb1f6844d0e)">
     <use style="fill:#2ca02c;stroke:#2ca02c;" x="211.355108" xlink:href="#C1_0_9cca18f638" y="199.937823"/>
    </g>
    <g clip-path="url(#pb1f6844d0e)">
     <use style="fill:#d62728;stroke:#d62728;" x="198.105876" xlink:href="#C1_0_9cca18f638" y="175.358602"/>
    </g>
    <g clip-path="url(#pb1f6844d0e)">
     <use style="fill:#9467bd;stroke:#9467bd;" x="196.045323" xlink:href="#C1_0_9cca18f638" y="141.775749"/>
    </g>
    <g clip-path="url(#pb1f6844d0e)">
     <use style="fill:#1f77b4;stroke:#1f77b4;" x="255.686299" xlink:href="#C1_0_9cca18f638" y="210.497631"/>
    </g>
    <g clip-path="url(#pb1f6844d0e)">
     <use style="fill:#ff7f0e;stroke:#ff7f0e;" x="212.764759" xlink:href="#C1_0_9cca18f638" y="198.587656"/>
    </g>
   </g>
   <g id="PathCollection_7">
    <g clip-path="url(#pb1f6844d0e)">
     <use style="fill:#e50000;stroke:#e50000;" x="196.308174" xlink:href="#m46c1f79b08" y="156.430189"/>
    </g>
   </g>
   <g id="PathCollection_8">
    <g clip-path="url(#pb1f6844d0e)">
     <use style="fill:#c65102;stroke:#c65102;" x="205.260195" xlink:href="#mfa9d7dbd53" y="86.308597"/>
     <use style="fill:#c65102;stroke:#c65102;" x="205.260195" xlink:href="#mfa9d7dbd53" y="86.308597"/>
    </g>
   </g>
   <g id="matplotlib.axis_3">
    <g id="xtick_4">
     <g id="line2d_12">
      <g>
       <use style="stroke:#000000;stroke-width:0.8;" x="189.29305" xlink:href="#medf48e227c" y="241.2"/>
      </g>
     </g>
     <g id="text_15">
      <!-- 60 -->
      <g transform="translate(182.93055 255.798438)scale(0.1 -0.1)">
       <use xlink:href="#DejaVuSans-36"/>
       <use x="63.623047" xlink:href="#DejaVuSans-30"/>
      </g>
     </g>
    </g>
    <g id="xtick_5">
     <g id="line2d_13">
      <g>
       <use style="stroke:#000000;stroke-width:0.8;" x="222.229372" xlink:href="#medf48e227c" y="241.2"/>
      </g>
     </g>
     <g id="text_16">
      <!-- 70 -->
      <g transform="translate(215.866872 255.798438)scale(0.1 -0.1)">
       <use xlink:href="#DejaVuSans-37"/>
       <use x="63.623047" xlink:href="#DejaVuSans-30"/>
      </g>
     </g>
    </g>
    <g id="xtick_6">
     <g id="line2d_14">
      <g>
       <use style="stroke:#000000;stroke-width:0.8;" x="255.165695" xlink:href="#medf48e227c" y="241.2"/>
      </g>
     </g>
     <g id="text_17">
      <!-- 80 -->
      <g transform="translate(248.803195 255.798438)scale(0.1 -0.1)">
       <use xlink:href="#DejaVuSans-38"/>
       <use x="63.623047" xlink:href="#DejaVuSans-30"/>
      </g>
     </g>
    </g>
    <g id="text_18">
     <!-- Volume ($\AA^3$) -->
     <g transform="translate(183.673763 270.498438)scale(0.1 -0.1)">
      <use transform="translate(0 0.171875)" xlink:href="#DejaVuSans-56"/>
      <use transform="translate(68.408203 0.171875)" xlink:href="#DejaVuSans-6f"/>
      <use transform="translate(129.589844 0.171875)" xlink:href="#DejaVuSans-6c"/>
      <use transform="translate(157.373047 0.171875)" xlink:href="#DejaVuSans-75"/>
      <use transform="translate(220.751953 0.171875)" xlink:href="#DejaVuSans-6d"/>
      <use transform="translate(318.164062 0.171875)" xlink:href="#DejaVuSans-65"/>
      <use transform="translate(379.6875 0.171875)" xlink:href="#DejaVuSans-20"/>
      <use transform="translate(411.474609 0.171875)" xlink:href="#DejaVuSans-28"/>
      <use transform="translate(450.488281 0.171875)" xlink:href="#DejaVuSans-Oblique-c5"/>
      <use transform="translate(528.702318 38.453125)scale(0.7)" xlink:href="#DejaVuSans-33"/>
      <use transform="translate(575.972826 0.171875)" xlink:href="#DejaVuSans-29"/>
     </g>
    </g>
   </g>
   <g id="matplotlib.axis_4">
    <g id="ytick_9">
     <g id="line2d_15">
      <g>
       <use style="stroke:#000000;stroke-width:0.8;" x="169.034974" xlink:href="#mcb18972dc7" y="219.727036"/>
      </g>
     </g>
    </g>
    <g id="ytick_10">
     <g id="line2d_16">
      <g>
       <use style="stroke:#000000;stroke-width:0.8;" x="169.034974" xlink:href="#mcb18972dc7" y="194.808505"/>
      </g>
     </g>
    </g>
    <g id="ytick_11">
     <g id="line2d_17">
      <g>
       <use style="stroke:#000000;stroke-width:0.8;" x="169.034974" xlink:href="#mcb18972dc7" y="169.889975"/>
      </g>
     </g>
    </g>
    <g id="ytick_12">
     <g id="line2d_18">
      <g>
       <use style="stroke:#000000;stroke-width:0.8;" x="169.034974" xlink:href="#mcb18972dc7" y="144.971444"/>
      </g>
     </g>
    </g>
    <g id="ytick_13">
     <g id="line2d_19">
      <g>
       <use style="stroke:#000000;stroke-width:0.8;" x="169.034974" xlink:href="#mcb18972dc7" y="120.052914"/>
      </g>
     </g>
    </g>
    <g id="ytick_14">
     <g id="line2d_20">
      <g>
       <use style="stroke:#000000;stroke-width:0.8;" x="169.034974" xlink:href="#mcb18972dc7" y="95.134383"/>
      </g>
     </g>
    </g>
    <g id="ytick_15">
     <g id="line2d_21">
      <g>
       <use style="stroke:#000000;stroke-width:0.8;" x="169.034974" xlink:href="#mcb18972dc7" y="70.215853"/>
      </g>
     </g>
    </g>
    <g id="ytick_16">
     <g id="line2d_22">
      <g>
       <use style="stroke:#000000;stroke-width:0.8;" x="169.034974" xlink:href="#mcb18972dc7" y="45.297322"/>
      </g>
     </g>
    </g>
   </g>
   <g id="patch_8">
    <path d="M 169.034974 241.2 
L 169.034974 26.8 
" style="fill:none;stroke:#000000;stroke-linecap:square;stroke-linejoin:miter;stroke-width:0.8;"/>
   </g>
   <g id="patch_9">
    <path d="M 259.812553 241.2 
L 259.812553 26.8 
" style="fill:none;stroke:#000000;stroke-linecap:square;stroke-linejoin:miter;stroke-width:0.8;"/>
   </g>
   <g id="patch_10">
    <path d="M 169.034974 241.2 
L 259.812553 241.2 
" style="fill:none;stroke:#000000;stroke-linecap:square;stroke-linejoin:miter;stroke-width:0.8;"/>
   </g>
   <g id="patch_11">
    <path d="M 169.034974 26.8 
L 259.812553 26.8 
" style="fill:none;stroke:#000000;stroke-linecap:square;stroke-linejoin:miter;stroke-width:0.8;"/>
   </g>
   <g id="text_19">
    <!-- HSE06 -->
    <g transform="translate(194.676263 20.8)scale(0.12 -0.12)">
     <defs>
      <path d="M 628 4666 
L 1259 4666 
L 1259 2753 
L 3553 2753 
L 3553 4666 
L 4184 4666 
L 4184 0 
L 3553 0 
L 3553 2222 
L 1259 2222 
L 1259 0 
L 628 0 
L 628 4666 
z
" id="DejaVuSans-48" transform="scale(0.015625)"/>
      <path d="M 3425 4513 
L 3425 3897 
Q 3066 4069 2747 4153 
Q 2428 4238 2131 4238 
Q 1616 4238 1336 4038 
Q 1056 3838 1056 3469 
Q 1056 3159 1242 3001 
Q 1428 2844 1947 2747 
L 2328 2669 
Q 3034 2534 3370 2195 
Q 3706 1856 3706 1288 
Q 3706 609 3251 259 
Q 2797 -91 1919 -91 
Q 1588 -91 1214 -16 
Q 841 59 441 206 
L 441 856 
Q 825 641 1194 531 
Q 1563 422 1919 422 
Q 2459 422 2753 634 
Q 3047 847 3047 1241 
Q 3047 1584 2836 1778 
Q 2625 1972 2144 2069 
L 1759 2144 
Q 1053 2284 737 2584 
Q 422 2884 422 3419 
Q 422 4038 858 4394 
Q 1294 4750 2059 4750 
Q 2388 4750 2728 4690 
Q 3069 4631 3425 4513 
z
" id="DejaVuSans-53" transform="scale(0.015625)"/>
      <path d="M 628 4666 
L 3578 4666 
L 3578 4134 
L 1259 4134 
L 1259 2753 
L 3481 2753 
L 3481 2222 
L 1259 2222 
L 1259 531 
L 3634 531 
L 3634 0 
L 628 0 
L 628 4666 
z
" id="DejaVuSans-45" transform="scale(0.015625)"/>
     </defs>
     <use xlink:href="#DejaVuSans-48"/>
     <use x="75.195312" xlink:href="#DejaVuSans-53"/>
     <use x="138.671875" xlink:href="#DejaVuSans-45"/>
     <use x="201.855469" xlink:href="#DejaVuSans-30"/>
     <use x="265.478516" xlink:href="#DejaVuSans-36"/>
    </g>
   </g>
  </g>
  <g id="axes_3">
   <g id="patch_12">
    <path d="M 275.519947 241.2 
L 366.297526 241.2 
L 366.297526 26.8 
L 275.519947 26.8 
z
" style="fill:#ffffff;"/>
   </g>
   <g id="PathCollection_9">
    <g clip-path="url(#p4e612e2638)">
     <use style="fill:#0a888a;stroke:#0a888a;" x="286.096924" xlink:href="#m755daa330e" y="169.889975"/>
     <use style="fill:#0a888a;stroke:#0a888a;" x="286.28387" xlink:href="#m755daa330e" y="169.884835"/>
    </g>
   </g>
   <g id="PathCollection_10">
    <defs>
     <path d="M 0 1.369306 
C 0.363144 1.369306 0.711464 1.225028 0.968246 0.968246 
C 1.225028 0.711464 1.369306 0.363144 1.369306 -0 
C 1.369306 -0.363144 1.225028 -0.711464 0.968246 -0.968246 
C 0.711464 -1.225028 0.363144 -1.369306 0 -1.369306 
C -0.363144 -1.369306 -0.711464 -1.225028 -0.968246 -0.968246 
C -1.225028 -0.711464 -1.369306 -0.363144 -1.369306 0 
C -1.369306 0.363144 -1.225028 0.711464 -0.968246 0.968246 
C -0.711464 1.225028 -0.363144 1.369306 0 1.369306 
z
" id="C2_0_dda759730f"/>
    </defs>
    <g clip-path="url(#p4e612e2638)">
     <use style="fill:#1f77b4;stroke:#1f77b4;" x="323.323544" xlink:href="#C2_0_dda759730f" y="78.333554"/>
    </g>
    <g clip-path="url(#p4e612e2638)">
     <use style="fill:#ff7f0e;stroke:#ff7f0e;" x="289.756779" xlink:href="#C2_0_dda759730f" y="148.09895"/>
    </g>
    <g clip-path="url(#p4e612e2638)">
     <use style="fill:#2ca02c;stroke:#2ca02c;" x="296.937477" xlink:href="#C2_0_dda759730f" y="174.615872"/>
    </g>
    <g clip-path="url(#p4e612e2638)">
     <use style="fill:#2ca02c;stroke:#2ca02c;" x="296.937477" xlink:href="#C2_0_dda759730f" y="174.615872"/>
    </g>
    <g clip-path="url(#p4e612e2638)">
     <use style="fill:#d62728;stroke:#d62728;" x="289.920842" xlink:href="#C2_0_dda759730f" y="194.244246"/>
    </g>
    <g clip-path="url(#p4e612e2638)">
     <use style="fill:#9467bd;stroke:#9467bd;" x="290.109765" xlink:href="#C2_0_dda759730f" y="147.427163"/>
    </g>
    <g clip-path="url(#p4e612e2638)">
     <use style="fill:#9467bd;stroke:#9467bd;" x="289.968958" xlink:href="#C2_0_dda759730f" y="147.693632"/>
    </g>
    <g clip-path="url(#p4e612e2638)">
     <use style="fill:#1f77b4;stroke:#1f77b4;" x="322.507415" xlink:href="#C2_0_dda759730f" y="78.033871"/>
    </g>
    <g clip-path="url(#p4e612e2638)">
     <use style="fill:#1f77b4;stroke:#1f77b4;" x="322.507415" xlink:href="#C2_0_dda759730f" y="78.033871"/>
    </g>
    <g clip-path="url(#p4e612e2638)">
     <use style="fill:#ff7f0e;stroke:#ff7f0e;" x="289.656004" xlink:href="#C2_0_dda759730f" y="147.786495"/>
    </g>
    <g clip-path="url(#p4e612e2638)">
     <use style="fill:#ff7f0e;stroke:#ff7f0e;" x="289.656004" xlink:href="#C2_0_dda759730f" y="147.786495"/>
    </g>
    <g clip-path="url(#p4e612e2638)">
     <use style="fill:#2ca02c;stroke:#2ca02c;" x="296.96987" xlink:href="#C2_0_dda759730f" y="174.56798"/>
    </g>
    <g clip-path="url(#p4e612e2638)">
     <use style="fill:#d62728;stroke:#d62728;" x="289.637915" xlink:href="#C2_0_dda759730f" y="194.131456"/>
    </g>
   </g>
   <g id="PathCollection_11">
    <g clip-path="url(#p4e612e2638)">
     <use style="fill:#e50000;stroke:#e50000;" x="289.166087" xlink:href="#m46c1f79b08" y="118.797744"/>
     <use style="fill:#e50000;stroke:#e50000;" x="288.9381" xlink:href="#m46c1f79b08" y="118.822962"/>
    </g>
   </g>
   <g id="PathCollection_12">
    <g clip-path="url(#p4e612e2638)">
     <use style="fill:#c65102;stroke:#c65102;" x="290.695362" xlink:href="#mfa9d7dbd53" y="82.025473"/>
     <use style="fill:#c65102;stroke:#c65102;" x="290.339482" xlink:href="#mfa9d7dbd53" y="81.839579"/>
     <use style="fill:#c65102;stroke:#c65102;" x="290.695362" xlink:href="#mfa9d7dbd53" y="82.025473"/>
     <use style="fill:#c65102;stroke:#c65102;" x="290.339482" xlink:href="#mfa9d7dbd53" y="81.839579"/>
    </g>
   </g>
   <g id="matplotlib.axis_5">
    <g id="xtick_7">
     <g id="line2d_23">
      <g>
       <use style="stroke:#000000;stroke-width:0.8;" x="295.778023" xlink:href="#medf48e227c" y="241.2"/>
      </g>
     </g>
     <g id="text_20">
      <!-- 60 -->
      <g transform="translate(289.415523 255.798438)scale(0.1 -0.1)">
       <use xlink:href="#DejaVuSans-36"/>
       <use x="63.623047" xlink:href="#DejaVuSans-30"/>
      </g>
     </g>
    </g>
    <g id="xtick_8">
     <g id="line2d_24">
      <g>
       <use style="stroke:#000000;stroke-width:0.8;" x="328.714346" xlink:href="#medf48e227c" y="241.2"/>
      </g>
     </g>
     <g id="text_21">
      <!-- 70 -->
      <g transform="translate(322.351846 255.798438)scale(0.1 -0.1)">
       <use xlink:href="#DejaVuSans-37"/>
       <use x="63.623047" xlink:href="#DejaVuSans-30"/>
      </g>
     </g>
    </g>
    <g id="xtick_9">
     <g id="line2d_25">
      <g>
       <use style="stroke:#000000;stroke-width:0.8;" x="361.650669" xlink:href="#medf48e227c" y="241.2"/>
      </g>
     </g>
     <g id="text_22">
      <!-- 80 -->
      <g transform="translate(355.288169 255.798438)scale(0.1 -0.1)">
       <use xlink:href="#DejaVuSans-38"/>
       <use x="63.623047" xlink:href="#DejaVuSans-30"/>
      </g>
     </g>
    </g>
    <g id="text_23">
     <!-- Volume ($\AA^3$) -->
     <g transform="translate(290.158737 270.498438)scale(0.1 -0.1)">
      <use transform="translate(0 0.171875)" xlink:href="#DejaVuSans-56"/>
      <use transform="translate(68.408203 0.171875)" xlink:href="#DejaVuSans-6f"/>
      <use transform="translate(129.589844 0.171875)" xlink:href="#DejaVuSans-6c"/>
      <use transform="translate(157.373047 0.171875)" xlink:href="#DejaVuSans-75"/>
      <use transform="translate(220.751953 0.171875)" xlink:href="#DejaVuSans-6d"/>
      <use transform="translate(318.164062 0.171875)" xlink:href="#DejaVuSans-65"/>
      <use transform="translate(379.6875 0.171875)" xlink:href="#DejaVuSans-20"/>
      <use transform="translate(411.474609 0.171875)" xlink:href="#DejaVuSans-28"/>
      <use transform="translate(450.488281 0.171875)" xlink:href="#DejaVuSans-Oblique-c5"/>
      <use transform="translate(528.702318 38.453125)scale(0.7)" xlink:href="#DejaVuSans-33"/>
      <use transform="translate(575.972826 0.171875)" xlink:href="#DejaVuSans-29"/>
     </g>
    </g>
   </g>
   <g id="matplotlib.axis_6">
    <g id="ytick_17">
     <g id="line2d_26">
      <g>
       <use style="stroke:#000000;stroke-width:0.8;" x="275.519947" xlink:href="#mcb18972dc7" y="219.727036"/>
      </g>
     </g>
    </g>
    <g id="ytick_18">
     <g id="line2d_27">
      <g>
       <use style="stroke:#000000;stroke-width:0.8;" x="275.519947" xlink:href="#mcb18972dc7" y="194.808505"/>
      </g>
     </g>
    </g>
    <g id="ytick_19">
     <g id="line2d_28">
      <g>
       <use style="stroke:#000000;stroke-width:0.8;" x="275.519947" xlink:href="#mcb18972dc7" y="169.889975"/>
      </g>
     </g>
    </g>
    <g id="ytick_20">
     <g id="line2d_29">
      <g>
       <use style="stroke:#000000;stroke-width:0.8;" x="275.519947" xlink:href="#mcb18972dc7" y="144.971444"/>
      </g>
     </g>
    </g>
    <g id="ytick_21">
     <g id="line2d_30">
      <g>
       <use style="stroke:#000000;stroke-width:0.8;" x="275.519947" xlink:href="#mcb18972dc7" y="120.052914"/>
      </g>
     </g>
    </g>
    <g id="ytick_22">
     <g id="line2d_31">
      <g>
       <use style="stroke:#000000;stroke-width:0.8;" x="275.519947" xlink:href="#mcb18972dc7" y="95.134383"/>
      </g>
     </g>
    </g>
    <g id="ytick_23">
     <g id="line2d_32">
      <g>
       <use style="stroke:#000000;stroke-width:0.8;" x="275.519947" xlink:href="#mcb18972dc7" y="70.215853"/>
      </g>
     </g>
    </g>
    <g id="ytick_24">
     <g id="line2d_33">
      <g>
       <use style="stroke:#000000;stroke-width:0.8;" x="275.519947" xlink:href="#mcb18972dc7" y="45.297322"/>
      </g>
     </g>
    </g>
   </g>
   <g id="patch_13">
    <path d="M 275.519947 241.2 
L 275.519947 26.8 
" style="fill:none;stroke:#000000;stroke-linecap:square;stroke-linejoin:miter;stroke-width:0.8;"/>
   </g>
   <g id="patch_14">
    <path d="M 366.297526 241.2 
L 366.297526 26.8 
" style="fill:none;stroke:#000000;stroke-linecap:square;stroke-linejoin:miter;stroke-width:0.8;"/>
   </g>
   <g id="patch_15">
    <path d="M 275.519947 241.2 
L 366.297526 241.2 
" style="fill:none;stroke:#000000;stroke-linecap:square;stroke-linejoin:miter;stroke-width:0.8;"/>
   </g>
   <g id="patch_16">
    <path d="M 275.519947 26.8 
L 366.297526 26.8 
" style="fill:none;stroke:#000000;stroke-linecap:square;stroke-linejoin:miter;stroke-width:0.8;"/>
   </g>
   <g id="text_24">
    <!-- PBEsol -->
    <g transform="translate(300.919362 20.8)scale(0.12 -0.12)">
     <defs>
      <path d="M 1259 4147 
L 1259 2394 
L 2053 2394 
Q 2494 2394 2734 2622 
Q 2975 2850 2975 3272 
Q 2975 3691 2734 3919 
Q 2494 4147 2053 4147 
L 1259 4147 
z
M 628 4666 
L 2053 4666 
Q 2838 4666 3239 4311 
Q 3641 3956 3641 3272 
Q 3641 2581 3239 2228 
Q 2838 1875 2053 1875 
L 1259 1875 
L 1259 0 
L 628 0 
L 628 4666 
z
" id="DejaVuSans-50" transform="scale(0.015625)"/>
      <path d="M 1259 2228 
L 1259 519 
L 2272 519 
Q 2781 519 3026 730 
Q 3272 941 3272 1375 
Q 3272 1813 3026 2020 
Q 2781 2228 2272 2228 
L 1259 2228 
z
M 1259 4147 
L 1259 2741 
L 2194 2741 
Q 2656 2741 2882 2914 
Q 3109 3088 3109 3444 
Q 3109 3797 2882 3972 
Q 2656 4147 2194 4147 
L 1259 4147 
z
M 628 4666 
L 2241 4666 
Q 2963 4666 3353 4366 
Q 3744 4066 3744 3513 
Q 3744 3084 3544 2831 
Q 3344 2578 2956 2516 
Q 3422 2416 3680 2098 
Q 3938 1781 3938 1306 
Q 3938 681 3513 340 
Q 3088 0 2303 0 
L 628 0 
L 628 4666 
z
" id="DejaVuSans-42" transform="scale(0.015625)"/>
      <path d="M 2834 3397 
L 2834 2853 
Q 2591 2978 2328 3040 
Q 2066 3103 1784 3103 
Q 1356 3103 1142 2972 
Q 928 2841 928 2578 
Q 928 2378 1081 2264 
Q 1234 2150 1697 2047 
L 1894 2003 
Q 2506 1872 2764 1633 
Q 3022 1394 3022 966 
Q 3022 478 2636 193 
Q 2250 -91 1575 -91 
Q 1294 -91 989 -36 
Q 684 19 347 128 
L 347 722 
Q 666 556 975 473 
Q 1284 391 1588 391 
Q 1994 391 2212 530 
Q 2431 669 2431 922 
Q 2431 1156 2273 1281 
Q 2116 1406 1581 1522 
L 1381 1569 
Q 847 1681 609 1914 
Q 372 2147 372 2553 
Q 372 3047 722 3315 
Q 1072 3584 1716 3584 
Q 2034 3584 2315 3537 
Q 2597 3491 2834 3397 
z
" id="DejaVuSans-73" transform="scale(0.015625)"/>
     </defs>
     <use xlink:href="#DejaVuSans-50"/>
     <use x="60.302734" xlink:href="#DejaVuSans-42"/>
     <use x="128.90625" xlink:href="#DejaVuSans-45"/>
     <use x="192.089844" xlink:href="#DejaVuSans-73"/>
     <use x="244.189453" xlink:href="#DejaVuSans-6f"/>
     <use x="305.371094" xlink:href="#DejaVuSans-6c"/>
    </g>
   </g>
  </g>
  <g id="axes_4">
   <g id="patch_17">
    <path d="M 382.004921 241.2 
L 472.7825 241.2 
L 472.7825 26.8 
L 382.004921 26.8 
z
" style="fill:#ffffff;"/>
   </g>
   <g id="PathCollection_13">
    <g clip-path="url(#pb63d131273)">
     <use style="fill:#0a888a;stroke:#0a888a;" x="406.903822" xlink:href="#m755daa330e" y="169.788222"/>
     <use style="fill:#0a888a;stroke:#0a888a;" x="407.009357" xlink:href="#m755daa330e" y="169.889975"/>
    </g>
   </g>
   <g id="PathCollection_14">
    <defs>
     <path d="M 0 1.369306 
C 0.363144 1.369306 0.711464 1.225028 0.968246 0.968246 
C 1.225028 0.711464 1.369306 0.363144 1.369306 -0 
C 1.369306 -0.363144 1.225028 -0.711464 0.968246 -0.968246 
C 0.711464 -1.225028 0.363144 -1.369306 0 -1.369306 
C -0.363144 -1.369306 -0.711464 -1.225028 -0.968246 -0.968246 
C -1.225028 -0.711464 -1.369306 -0.363144 -1.369306 0 
C -1.369306 0.363144 -1.225028 0.711464 -0.968246 0.968246 
C -0.711464 1.225028 -0.363144 1.369306 0 1.369306 
z
" id="C3_0_f23c8b540b"/>
    </defs>
    <g clip-path="url(#pb63d131273)">
     <use style="fill:#1f77b4;stroke:#1f77b4;" x="467.513576" xlink:href="#C3_0_f23c8b540b" y="231.176002"/>
    </g>
    <g clip-path="url(#pb63d131273)">
     <use style="fill:#ff7f0e;stroke:#ff7f0e;" x="422.905102" xlink:href="#C3_0_f23c8b540b" y="207.857598"/>
    </g>
    <g clip-path="url(#pb63d131273)">
     <use style="fill:#2ca02c;stroke:#2ca02c;" x="423.871038" xlink:href="#C3_0_f23c8b540b" y="209.258173"/>
    </g>
    <g clip-path="url(#pb63d131273)">
     <use style="fill:#2ca02c;stroke:#2ca02c;" x="423.871038" xlink:href="#C3_0_f23c8b540b" y="209.258173"/>
    </g>
    <g clip-path="url(#pb63d131273)">
     <use style="fill:#d62728;stroke:#d62728;" x="413.613563" xlink:href="#C3_0_f23c8b540b" y="194.299222"/>
    </g>
    <g clip-path="url(#pb63d131273)">
     <use style="fill:#9467bd;stroke:#9467bd;" x="396.65512" xlink:href="#C3_0_f23c8b540b" y="78.847814"/>
    </g>
    <g clip-path="url(#pb63d131273)">
     <use style="fill:#1f77b4;stroke:#1f77b4;" x="467.494854" xlink:href="#C3_0_f23c8b540b" y="231.454545"/>
    </g>
    <g clip-path="url(#pb63d131273)">
     <use style="fill:#ff7f0e;stroke:#ff7f0e;" x="421.822144" xlink:href="#C3_0_f23c8b540b" y="208.104161"/>
    </g>
   </g>
   <g id="PathCollection_15">
    <g clip-path="url(#pb63d131273)">
     <use style="fill:#e50000;stroke:#e50000;" x="410.379627" xlink:href="#m46c1f79b08" y="140.98666"/>
    </g>
   </g>
   <g id="PathCollection_16">
    <g clip-path="url(#pb63d131273)">
     <use style="fill:#c65102;stroke:#c65102;" x="411.855743" xlink:href="#mfa9d7dbd53" y="103.856444"/>
     <use style="fill:#c65102;stroke:#c65102;" x="411.855743" xlink:href="#mfa9d7dbd53" y="103.856444"/>
    </g>
   </g>
   <g id="matplotlib.axis_7">
    <g id="xtick_10">
     <g id="line2d_34">
      <g>
       <use style="stroke:#000000;stroke-width:0.8;" x="402.262997" xlink:href="#medf48e227c" y="241.2"/>
      </g>
     </g>
     <g id="text_25">
      <!-- 60 -->
      <g transform="translate(395.900497 255.798438)scale(0.1 -0.1)">
       <use xlink:href="#DejaVuSans-36"/>
       <use x="63.623047" xlink:href="#DejaVuSans-30"/>
      </g>
     </g>
    </g>
    <g id="xtick_11">
     <g id="line2d_35">
      <g>
       <use style="stroke:#000000;stroke-width:0.8;" x="435.19932" xlink:href="#medf48e227c" y="241.2"/>
      </g>
     </g>
     <g id="text_26">
      <!-- 70 -->
      <g transform="translate(428.83682 255.798438)scale(0.1 -0.1)">
       <use xlink:href="#DejaVuSans-37"/>
       <use x="63.623047" xlink:href="#DejaVuSans-30"/>
      </g>
     </g>
    </g>
    <g id="xtick_12">
     <g id="line2d_36">
      <g>
       <use style="stroke:#000000;stroke-width:0.8;" x="468.135642" xlink:href="#medf48e227c" y="241.2"/>
      </g>
     </g>
     <g id="text_27">
      <!-- 80 -->
      <g transform="translate(461.773142 255.798438)scale(0.1 -0.1)">
       <use xlink:href="#DejaVuSans-38"/>
       <use x="63.623047" xlink:href="#DejaVuSans-30"/>
      </g>
     </g>
    </g>
    <g id="text_28">
     <!-- Volume ($\AA^3$) -->
     <g transform="translate(396.64371 270.498438)scale(0.1 -0.1)">
      <use transform="translate(0 0.171875)" xlink:href="#DejaVuSans-56"/>
      <use transform="translate(68.408203 0.171875)" xlink:href="#DejaVuSans-6f"/>
      <use transform="translate(129.589844 0.171875)" xlink:href="#DejaVuSans-6c"/>
      <use transform="translate(157.373047 0.171875)" xlink:href="#DejaVuSans-75"/>
      <use transform="translate(220.751953 0.171875)" xlink:href="#DejaVuSans-6d"/>
      <use transform="translate(318.164062 0.171875)" xlink:href="#DejaVuSans-65"/>
      <use transform="translate(379.6875 0.171875)" xlink:href="#DejaVuSans-20"/>
      <use transform="translate(411.474609 0.171875)" xlink:href="#DejaVuSans-28"/>
      <use transform="translate(450.488281 0.171875)" xlink:href="#DejaVuSans-Oblique-c5"/>
      <use transform="translate(528.702318 38.453125)scale(0.7)" xlink:href="#DejaVuSans-33"/>
      <use transform="translate(575.972826 0.171875)" xlink:href="#DejaVuSans-29"/>
     </g>
    </g>
   </g>
   <g id="matplotlib.axis_8">
    <g id="ytick_25">
     <g id="line2d_37">
      <g>
       <use style="stroke:#000000;stroke-width:0.8;" x="382.004921" xlink:href="#mcb18972dc7" y="219.727036"/>
      </g>
     </g>
    </g>
    <g id="ytick_26">
     <g id="line2d_38">
      <g>
       <use style="stroke:#000000;stroke-width:0.8;" x="382.004921" xlink:href="#mcb18972dc7" y="194.808505"/>
      </g>
     </g>
    </g>
    <g id="ytick_27">
     <g id="line2d_39">
      <g>
       <use style="stroke:#000000;stroke-width:0.8;" x="382.004921" xlink:href="#mcb18972dc7" y="169.889975"/>
      </g>
     </g>
    </g>
    <g id="ytick_28">
     <g id="line2d_40">
      <g>
       <use style="stroke:#000000;stroke-width:0.8;" x="382.004921" xlink:href="#mcb18972dc7" y="144.971444"/>
      </g>
     </g>
    </g>
    <g id="ytick_29">
     <g id="line2d_41">
      <g>
       <use style="stroke:#000000;stroke-width:0.8;" x="382.004921" xlink:href="#mcb18972dc7" y="120.052914"/>
      </g>
     </g>
    </g>
    <g id="ytick_30">
     <g id="line2d_42">
      <g>
       <use style="stroke:#000000;stroke-width:0.8;" x="382.004921" xlink:href="#mcb18972dc7" y="95.134383"/>
      </g>
     </g>
    </g>
    <g id="ytick_31">
     <g id="line2d_43">
      <g>
       <use style="stroke:#000000;stroke-width:0.8;" x="382.004921" xlink:href="#mcb18972dc7" y="70.215853"/>
      </g>
     </g>
    </g>
    <g id="ytick_32">
     <g id="line2d_44">
      <g>
       <use style="stroke:#000000;stroke-width:0.8;" x="382.004921" xlink:href="#mcb18972dc7" y="45.297322"/>
      </g>
     </g>
    </g>
   </g>
   <g id="patch_18">
    <path d="M 382.004921 241.2 
L 382.004921 26.8 
" style="fill:none;stroke:#000000;stroke-linecap:square;stroke-linejoin:miter;stroke-width:0.8;"/>
   </g>
   <g id="patch_19">
    <path d="M 472.7825 241.2 
L 472.7825 26.8 
" style="fill:none;stroke:#000000;stroke-linecap:square;stroke-linejoin:miter;stroke-width:0.8;"/>
   </g>
   <g id="patch_20">
    <path d="M 382.004921 241.2 
L 472.7825 241.2 
" style="fill:none;stroke:#000000;stroke-linecap:square;stroke-linejoin:miter;stroke-width:0.8;"/>
   </g>
   <g id="patch_21">
    <path d="M 382.004921 26.8 
L 472.7825 26.8 
" style="fill:none;stroke:#000000;stroke-linecap:square;stroke-linejoin:miter;stroke-width:0.8;"/>
   </g>
   <g id="text_29">
    <!-- PBE -->
    <g transform="translate(415.868085 20.8)scale(0.12 -0.12)">
     <use xlink:href="#DejaVuSans-50"/>
     <use x="60.302734" xlink:href="#DejaVuSans-42"/>
     <use x="128.90625" xlink:href="#DejaVuSans-45"/>
    </g>
   </g>
   <g id="legend_1">
    <g id="patch_22">
     <path d="M 479.7825 93.5125 
L 562.2825 93.5125 
Q 564.2825 93.5125 564.2825 91.5125 
L 564.2825 33.8 
Q 564.2825 31.8 562.2825 31.8 
L 479.7825 31.8 
Q 477.7825 31.8 477.7825 33.8 
L 477.7825 91.5125 
Q 477.7825 93.5125 479.7825 93.5125 
z
" style="fill:#ffffff;opacity:0.8;stroke:#cccccc;stroke-linejoin:miter;"/>
    </g>
    <g id="PathCollection_17">
     <g>
      <use style="fill:#0a888a;stroke:#0a888a;" x="491.7825" xlink:href="#m755daa330e" y="40.773437"/>
     </g>
    </g>
    <g id="text_30">
     <!-- $P2_12_12_1$ -->
     <g transform="translate(509.7825 43.398437)scale(0.1 -0.1)">
      <defs>
       <path d="M 1081 4666 
L 2541 4666 
Q 3178 4666 3512 4369 
Q 3847 4072 3847 3500 
Q 3847 2731 3353 2303 
Q 2859 1875 1966 1875 
L 1172 1875 
L 806 0 
L 172 0 
L 1081 4666 
z
M 1613 4147 
L 1275 2394 
L 2069 2394 
Q 2606 2394 2893 2669 
Q 3181 2944 3181 3456 
Q 3181 3784 2986 3965 
Q 2791 4147 2438 4147 
L 1613 4147 
z
" id="DejaVuSans-Oblique-50" transform="scale(0.015625)"/>
      </defs>
      <use transform="translate(0 0.78125)" xlink:href="#DejaVuSans-Oblique-50"/>
      <use transform="translate(60.302734 0.78125)" xlink:href="#DejaVuSans-32"/>
      <use transform="translate(124.882812 -15.625)scale(0.7)" xlink:href="#DejaVuSans-31"/>
      <use transform="translate(172.15332 0.78125)" xlink:href="#DejaVuSans-32"/>
      <use transform="translate(236.733398 -15.625)scale(0.7)" xlink:href="#DejaVuSans-31"/>
      <use transform="translate(284.003906 0.78125)" xlink:href="#DejaVuSans-32"/>
      <use transform="translate(348.583984 -15.625)scale(0.7)" xlink:href="#DejaVuSans-31"/>
     </g>
    </g>
    <g id="PathCollection_18">
     <path d="M 491.7825 56.820869 
C 492.145644 56.820869 492.493964 56.67659 492.750746 56.419808 
C 493.007528 56.163027 493.151806 55.814707 493.151806 55.451562 
C 493.151806 55.088418 493.007528 54.740098 492.750746 54.483317 
C 492.493964 54.226535 492.145644 54.082256 491.7825 54.082256 
C 491.419356 54.082256 491.071036 54.226535 490.814254 54.483317 
C 490.557472 54.740098 490.413194 55.088418 490.413194 55.451562 
C 490.413194 55.814707 490.557472 56.163027 490.814254 56.419808 
C 491.071036 56.67659 491.419356 56.820869 491.7825 56.820869 
z
" style="fill:#1f77b4;stroke:#1f77b4;"/>
    </g>
    <g id="text_31">
     <!-- AIRSS -->
     <g transform="translate(509.7825 58.076562)scale(0.1 -0.1)">
      <defs>
       <path d="M 628 4666 
L 1259 4666 
L 1259 0 
L 628 0 
L 628 4666 
z
" id="DejaVuSans-49" transform="scale(0.015625)"/>
      </defs>
      <use xlink:href="#DejaVuSans-41"/>
      <use x="68.408203" xlink:href="#DejaVuSans-49"/>
      <use x="97.900391" xlink:href="#DejaVuSans-52"/>
      <use x="167.382812" xlink:href="#DejaVuSans-53"/>
      <use x="230.859375" xlink:href="#DejaVuSans-53"/>
     </g>
    </g>
    <g id="PathCollection_19">
     <g>
      <use style="fill:#e50000;stroke:#e50000;" x="491.7825" xlink:href="#m46c1f79b08" y="70.129687"/>
     </g>
    </g>
    <g id="text_32">
     <!-- Anti-$\mathrm{PbCl_2}$ -->
     <g transform="translate(509.7825 72.754687)scale(0.1 -0.1)">
      <defs>
       <path d="M 313 2009 
L 1997 2009 
L 1997 1497 
L 313 1497 
L 313 2009 
z
" id="DejaVuSans-2d" transform="scale(0.015625)"/>
       <path d="M 3116 1747 
Q 3116 2381 2855 2742 
Q 2594 3103 2138 3103 
Q 1681 3103 1420 2742 
Q 1159 2381 1159 1747 
Q 1159 1113 1420 752 
Q 1681 391 2138 391 
Q 2594 391 2855 752 
Q 3116 1113 3116 1747 
z
M 1159 2969 
Q 1341 3281 1617 3432 
Q 1894 3584 2278 3584 
Q 2916 3584 3314 3078 
Q 3713 2572 3713 1747 
Q 3713 922 3314 415 
Q 2916 -91 2278 -91 
Q 1894 -91 1617 61 
Q 1341 213 1159 525 
L 1159 0 
L 581 0 
L 581 4863 
L 1159 4863 
L 1159 2969 
z
" id="DejaVuSans-62" transform="scale(0.015625)"/>
       <path d="M 4122 4306 
L 4122 3641 
Q 3803 3938 3442 4084 
Q 3081 4231 2675 4231 
Q 1875 4231 1450 3742 
Q 1025 3253 1025 2328 
Q 1025 1406 1450 917 
Q 1875 428 2675 428 
Q 3081 428 3442 575 
Q 3803 722 4122 1019 
L 4122 359 
Q 3791 134 3420 21 
Q 3050 -91 2638 -91 
Q 1578 -91 968 557 
Q 359 1206 359 2328 
Q 359 3453 968 4101 
Q 1578 4750 2638 4750 
Q 3056 4750 3426 4639 
Q 3797 4528 4122 4306 
z
" id="DejaVuSans-43" transform="scale(0.015625)"/>
      </defs>
      <use transform="translate(0 0.015625)" xlink:href="#DejaVuSans-41"/>
      <use transform="translate(68.408203 0.015625)" xlink:href="#DejaVuSans-6e"/>
      <use transform="translate(131.787109 0.015625)" xlink:href="#DejaVuSans-74"/>
      <use transform="translate(170.996094 0.015625)" xlink:href="#DejaVuSans-69"/>
      <use transform="translate(198.779297 0.015625)" xlink:href="#DejaVuSans-2d"/>
      <use transform="translate(234.863281 0.015625)" xlink:href="#DejaVuSans-50"/>
      <use transform="translate(295.166016 0.015625)" xlink:href="#DejaVuSans-62"/>
      <use transform="translate(358.642578 0.015625)" xlink:href="#DejaVuSans-43"/>
      <use transform="translate(428.466797 0.015625)" xlink:href="#DejaVuSans-6c"/>
      <use transform="translate(457.207031 -16.390625)scale(0.7)" xlink:href="#DejaVuSans-32"/>
     </g>
    </g>
    <g id="PathCollection_20">
     <g>
      <use style="fill:#c65102;stroke:#c65102;" x="491.7825" xlink:href="#mfa9d7dbd53" y="84.807812"/>
     </g>
    </g>
    <g id="text_33">
     <!-- Gunter -->
     <g transform="translate(509.7825 87.432812)scale(0.1 -0.1)">
      <defs>
       <path d="M 3809 666 
L 3809 1919 
L 2778 1919 
L 2778 2438 
L 4434 2438 
L 4434 434 
Q 4069 175 3628 42 
Q 3188 -91 2688 -91 
Q 1594 -91 976 548 
Q 359 1188 359 2328 
Q 359 3472 976 4111 
Q 1594 4750 2688 4750 
Q 3144 4750 3555 4637 
Q 3966 4525 4313 4306 
L 4313 3634 
Q 3963 3931 3569 4081 
Q 3175 4231 2741 4231 
Q 1884 4231 1454 3753 
Q 1025 3275 1025 2328 
Q 1025 1384 1454 906 
Q 1884 428 2741 428 
Q 3075 428 3337 486 
Q 3600 544 3809 666 
z
" id="DejaVuSans-47" transform="scale(0.015625)"/>
      </defs>
      <use xlink:href="#DejaVuSans-47"/>
      <use x="77.490234" xlink:href="#DejaVuSans-75"/>
      <use x="140.869141" xlink:href="#DejaVuSans-6e"/>
      <use x="204.248047" xlink:href="#DejaVuSans-74"/>
      <use x="243.457031" xlink:href="#DejaVuSans-65"/>
      <use x="304.980469" xlink:href="#DejaVuSans-72"/>
     </g>
    </g>
   </g>
  </g>
 </g>
 <defs>
  <clipPath id="p273c132518">
   <rect height="214.4" width="90.777579" x="62.55" y="26.8"/>
  </clipPath>
  <clipPath id="pb1f6844d0e">
   <rect height="214.4" width="90.777579" x="169.034974" y="26.8"/>
  </clipPath>
  <clipPath id="p4e612e2638">
   <rect height="214.4" width="90.777579" x="275.519947" y="26.8"/>
  </clipPath>
  <clipPath id="pb63d131273">
   <rect height="214.4" width="90.777579" x="382.004921" y="26.8"/>
  </clipPath>
 </defs>
</svg>
