<?xml version="1.0" encoding="utf-8" standalone="no"?>
<!DOCTYPE svg PUBLIC "-//W3C//DTD SVG 1.1//EN"
  "http://www.w3.org/Graphics/SVG/1.1/DTD/svg11.dtd">
<!-- Created with matplotlib (https://matplotlib.org/) -->
<svg height="252pt" version="1.1" viewBox="0 0 252 252" width="252pt" xmlns="http://www.w3.org/2000/svg" xmlns:xlink="http://www.w3.org/1999/xlink">
 <defs>
  <style type="text/css">
*{stroke-linecap:butt;stroke-linejoin:round;}
  </style>
 </defs>
 <g id="figure_1">
  <g id="patch_1">
   <path d="M 0 252 
L 252 252 
L 252 0 
L 0 0 
z
" style="fill:#ffffff;"/>
  </g>
  <g id="axes_1">
   <g id="patch_2">
    <path d="M 52.13 208.96 
L 242.28 208.96 
L 242.28 12.96 
L 52.13 12.96 
z
" style="fill:#ffffff;"/>
   </g>
   <g id="PathCollection_1">
    <defs>
     <path d="M 0 -3.535534 
L -3.535534 3.535534 
L 3.535534 3.535534 
z
" id="m603f4973f2" style="stroke:#00a094;"/>
    </defs>
    <g clip-path="url(#pf25a48be8d)">
     <use style="fill:#00a094;stroke:#00a094;" x="91.313486" xlink:href="#m603f4973f2" y="153.12585"/>
    </g>
   </g>
   <g id="PathCollection_2">
    <defs>
     <path d="M 0 -4.472136 
L -1.004057 -1.381966 
L -4.253254 -1.381966 
L -1.624598 0.527864 
L -2.628656 3.618034 
L -0 1.708204 
L 2.628656 3.618034 
L 1.624598 0.527864 
L 4.253254 -1.381966 
L 1.004057 -1.381966 
z
" id="meef71985bd" style="stroke:#eb9222;"/>
    </defs>
    <g clip-path="url(#pf25a48be8d)">
     <use style="fill:#eb9222;stroke:#eb9222;" x="107.716339" xlink:href="#meef71985bd" y="86.180126"/>
    </g>
   </g>
   <g id="PathCollection_3">
    <defs>
     <path d="M 0 0.790569 
C 0.209661 0.790569 0.410764 0.70727 0.559017 0.559017 
C 0.70727 0.410764 0.790569 0.209661 0.790569 0 
C 0.790569 -0.209661 0.70727 -0.410764 0.559017 -0.559017 
C 0.410764 -0.70727 0.209661 -0.790569 0 -0.790569 
C -0.209661 -0.790569 -0.410764 -0.70727 -0.559017 -0.559017 
C -0.70727 -0.410764 -0.790569 -0.209661 -0.790569 0 
C -0.790569 0.209661 -0.70727 0.410764 -0.559017 0.559017 
C -0.410764 0.70727 -0.209661 0.790569 0 0.790569 
z
" id="mcb2bcfcd2b" style="stroke:#097892;"/>
    </defs>
    <g clip-path="url(#pf25a48be8d)">
     <use style="fill:#097892;stroke:#097892;" x="171.743208" xlink:href="#mcb2bcfcd2b" y="25.718353"/>
     <use style="fill:#097892;stroke:#097892;" x="319.069539" xlink:href="#mcb2bcfcd2b" y="34.032695"/>
     <use style="fill:#097892;stroke:#097892;" x="178.754046" xlink:href="#mcb2bcfcd2b" y="30.890412"/>
     <use style="fill:#097892;stroke:#097892;" x="246.276174" xlink:href="#mcb2bcfcd2b" y="74.653341"/>
     <use style="fill:#097892;stroke:#097892;" x="180.980674" xlink:href="#mcb2bcfcd2b" y="93.718669"/>
     <use style="fill:#097892;stroke:#097892;" x="306.232493" xlink:href="#mcb2bcfcd2b" y="33.100993"/>
     <use style="fill:#097892;stroke:#097892;" x="214.964427" xlink:href="#mcb2bcfcd2b" y="70.177806"/>
     <use style="fill:#097892;stroke:#097892;" x="73.83297" xlink:href="#mcb2bcfcd2b" y="66.438216"/>
     <use style="fill:#097892;stroke:#097892;" x="106.297715" xlink:href="#mcb2bcfcd2b" y="138.980391"/>
     <use style="fill:#097892;stroke:#097892;" x="119.611487" xlink:href="#mcb2bcfcd2b" y="135.841171"/>
     <use style="fill:#097892;stroke:#097892;" x="198.696995" xlink:href="#mcb2bcfcd2b" y="21.053891"/>
     <use style="fill:#097892;stroke:#097892;" x="208.30034" xlink:href="#mcb2bcfcd2b" y="15.90989"/>
     <use style="fill:#097892;stroke:#097892;" x="117.2359" xlink:href="#mcb2bcfcd2b" y="51.815239"/>
     <use style="fill:#097892;stroke:#097892;" x="77.983887" xlink:href="#mcb2bcfcd2b" y="69.426615"/>
     <use style="fill:#097892;stroke:#097892;" x="124.801057" xlink:href="#mcb2bcfcd2b" y="27.685703"/>
     <use style="fill:#097892;stroke:#097892;" x="135.079267" xlink:href="#mcb2bcfcd2b" y="39.012957"/>
     <use style="fill:#097892;stroke:#097892;" x="146.374712" xlink:href="#mcb2bcfcd2b" y="43.679396"/>
     <use style="fill:#097892;stroke:#097892;" x="78.340198" xlink:href="#mcb2bcfcd2b" y="100.690346"/>
     <use style="fill:#097892;stroke:#097892;" x="162.19588" xlink:href="#mcb2bcfcd2b" y="62.342489"/>
     <use style="fill:#097892;stroke:#097892;" x="103.768122" xlink:href="#mcb2bcfcd2b" y="85.628718"/>
     <use style="fill:#097892;stroke:#097892;" x="100.712722" xlink:href="#mcb2bcfcd2b" y="115.977404"/>
     <use style="fill:#097892;stroke:#097892;" x="131.622396" xlink:href="#mcb2bcfcd2b" y="31.144221"/>
     <use style="fill:#097892;stroke:#097892;" x="200.336845" xlink:href="#mcb2bcfcd2b" y="53.959321"/>
     <use style="fill:#097892;stroke:#097892;" x="97.182429" xlink:href="#mcb2bcfcd2b" y="67.526003"/>
     <use style="fill:#097892;stroke:#097892;" x="106.648125" xlink:href="#mcb2bcfcd2b" y="138.402513"/>
     <use style="fill:#097892;stroke:#097892;" x="116.900007" xlink:href="#mcb2bcfcd2b" y="21.799676"/>
     <use style="fill:#097892;stroke:#097892;" x="114.58454" xlink:href="#mcb2bcfcd2b" y="41.05985"/>
     <use style="fill:#097892;stroke:#097892;" x="108.967432" xlink:href="#mcb2bcfcd2b" y="99.868632"/>
     <use style="fill:#097892;stroke:#097892;" x="89.674161" xlink:href="#mcb2bcfcd2b" y="13.584039"/>
     <use style="fill:#097892;stroke:#097892;" x="91.479084" xlink:href="#mcb2bcfcd2b" y="120.077141"/>
     <use style="fill:#097892;stroke:#097892;" x="73.730431" xlink:href="#mcb2bcfcd2b" y="91.024884"/>
     <use style="fill:#097892;stroke:#097892;" x="104.74452" xlink:href="#mcb2bcfcd2b" y="18.815704"/>
     <use style="fill:#097892;stroke:#097892;" x="128.0274" xlink:href="#mcb2bcfcd2b" y="67.619078"/>
     <use style="fill:#097892;stroke:#097892;" x="142.433513" xlink:href="#mcb2bcfcd2b" y="31.812777"/>
     <use style="fill:#097892;stroke:#097892;" x="103.432622" xlink:href="#mcb2bcfcd2b" y="74.57581"/>
     <use style="fill:#097892;stroke:#097892;" x="135.593787" xlink:href="#mcb2bcfcd2b" y="40.45078"/>
     <use style="fill:#097892;stroke:#097892;" x="131.499677" xlink:href="#mcb2bcfcd2b" y="113.15235"/>
     <use style="fill:#097892;stroke:#097892;" x="129.493538" xlink:href="#mcb2bcfcd2b" y="120.574317"/>
     <use style="fill:#097892;stroke:#097892;" x="181.467938" xlink:href="#mcb2bcfcd2b" y="-1"/>
     <use style="fill:#097892;stroke:#097892;" x="177.064812" xlink:href="#mcb2bcfcd2b" y="-1"/>
     <use style="fill:#097892;stroke:#097892;" x="108.569741" xlink:href="#mcb2bcfcd2b" y="83.908638"/>
     <use style="fill:#097892;stroke:#097892;" x="102.486346" xlink:href="#mcb2bcfcd2b" y="112.059163"/>
     <use style="fill:#097892;stroke:#097892;" x="138.306316" xlink:href="#mcb2bcfcd2b" y="20.612006"/>
     <use style="fill:#097892;stroke:#097892;" x="74.9572" xlink:href="#mcb2bcfcd2b" y="112.49655"/>
     <use style="fill:#097892;stroke:#097892;" x="131.987103" xlink:href="#mcb2bcfcd2b" y="27.41993"/>
     <use style="fill:#097892;stroke:#097892;" x="110.517393" xlink:href="#mcb2bcfcd2b" y="43.146798"/>
     <use style="fill:#097892;stroke:#097892;" x="76.245676" xlink:href="#mcb2bcfcd2b" y="79.247061"/>
     <use style="fill:#097892;stroke:#097892;" x="135.207649" xlink:href="#mcb2bcfcd2b" y="51.092908"/>
     <use style="fill:#097892;stroke:#097892;" x="94.315285" xlink:href="#mcb2bcfcd2b" y="90.068978"/>
     <use style="fill:#097892;stroke:#097892;" x="106.12831" xlink:href="#mcb2bcfcd2b" y="90.940791"/>
     <use style="fill:#097892;stroke:#097892;" x="122.411719" xlink:href="#mcb2bcfcd2b" y="113.199515"/>
     <use style="fill:#097892;stroke:#097892;" x="68.35294" xlink:href="#mcb2bcfcd2b" y="75.796119"/>
     <use style="fill:#097892;stroke:#097892;" x="118.365468" xlink:href="#mcb2bcfcd2b" y="38.058184"/>
     <use style="fill:#097892;stroke:#097892;" x="71.019583" xlink:href="#mcb2bcfcd2b" y="74.865813"/>
     <use style="fill:#097892;stroke:#097892;" x="114.209535" xlink:href="#mcb2bcfcd2b" y="77.869437"/>
     <use style="fill:#097892;stroke:#097892;" x="89.377667" xlink:href="#mcb2bcfcd2b" y="73.340691"/>
     <use style="fill:#097892;stroke:#097892;" x="267.770007" xlink:href="#mcb2bcfcd2b" y="30.883729"/>
     <use style="fill:#097892;stroke:#097892;" x="117.188717" xlink:href="#mcb2bcfcd2b" y="112.630935"/>
     <use style="fill:#097892;stroke:#097892;" x="166.098428" xlink:href="#mcb2bcfcd2b" y="38.543679"/>
     <use style="fill:#097892;stroke:#097892;" x="162.935777" xlink:href="#mcb2bcfcd2b" y="56.173059"/>
     <use style="fill:#097892;stroke:#097892;" x="113.522748" xlink:href="#mcb2bcfcd2b" y="78.257925"/>
     <use style="fill:#097892;stroke:#097892;" x="86.15308" xlink:href="#mcb2bcfcd2b" y="57.350265"/>
     <use style="fill:#097892;stroke:#097892;" x="78.965242" xlink:href="#mcb2bcfcd2b" y="69.011432"/>
     <use style="fill:#097892;stroke:#097892;" x="137.219603" xlink:href="#mcb2bcfcd2b" y="37.136962"/>
     <use style="fill:#097892;stroke:#097892;" x="113.654991" xlink:href="#mcb2bcfcd2b" y="105.338821"/>
     <use style="fill:#097892;stroke:#097892;" x="123.021549" xlink:href="#mcb2bcfcd2b" y="47.711851"/>
     <use style="fill:#097892;stroke:#097892;" x="158.307204" xlink:href="#mcb2bcfcd2b" y="91.32114"/>
     <use style="fill:#097892;stroke:#097892;" x="120.33016" xlink:href="#mcb2bcfcd2b" y="113.799735"/>
     <use style="fill:#097892;stroke:#097892;" x="138.272476" xlink:href="#mcb2bcfcd2b" y="3.75722"/>
     <use style="fill:#097892;stroke:#097892;" x="95.184623" xlink:href="#mcb2bcfcd2b" y="95.436285"/>
     <use style="fill:#097892;stroke:#097892;" x="96.536235" xlink:href="#mcb2bcfcd2b" y="84.005617"/>
     <use style="fill:#097892;stroke:#097892;" x="105.918467" xlink:href="#mcb2bcfcd2b" y="138.793029"/>
     <use style="fill:#097892;stroke:#097892;" x="151.903049" xlink:href="#mcb2bcfcd2b" y="158.929293"/>
     <use style="fill:#097892;stroke:#097892;" x="96.92759" xlink:href="#mcb2bcfcd2b" y="81.10794"/>
     <use style="fill:#097892;stroke:#097892;" x="153.898832" xlink:href="#mcb2bcfcd2b" y="159.321212"/>
     <use style="fill:#097892;stroke:#097892;" x="39.389773" xlink:href="#mcb2bcfcd2b" y="64.272922"/>
     <use style="fill:#097892;stroke:#097892;" x="114.767621" xlink:href="#mcb2bcfcd2b" y="92.049427"/>
     <use style="fill:#097892;stroke:#097892;" x="55.368473" xlink:href="#mcb2bcfcd2b" y="31.951676"/>
     <use style="fill:#097892;stroke:#097892;" x="179.878873" xlink:href="#mcb2bcfcd2b" y="49.722653"/>
     <use style="fill:#097892;stroke:#097892;" x="136.751208" xlink:href="#mcb2bcfcd2b" y="37.359414"/>
     <use style="fill:#097892;stroke:#097892;" x="208.761007" xlink:href="#mcb2bcfcd2b" y="7.694896"/>
     <use style="fill:#097892;stroke:#097892;" x="103.917561" xlink:href="#mcb2bcfcd2b" y="90.068757"/>
     <use style="fill:#097892;stroke:#097892;" x="124.692654" xlink:href="#mcb2bcfcd2b" y="82.561854"/>
     <use style="fill:#097892;stroke:#097892;" x="168.967396" xlink:href="#mcb2bcfcd2b" y="26.001151"/>
     <use style="fill:#097892;stroke:#097892;" x="61.817383" xlink:href="#mcb2bcfcd2b" y="116.893644"/>
     <use style="fill:#097892;stroke:#097892;" x="84.350945" xlink:href="#mcb2bcfcd2b" y="96.335533"/>
     <use style="fill:#097892;stroke:#097892;" x="73.017989" xlink:href="#mcb2bcfcd2b" y="99.152127"/>
     <use style="fill:#097892;stroke:#097892;" x="127.470288" xlink:href="#mcb2bcfcd2b" y="45.508397"/>
     <use style="fill:#097892;stroke:#097892;" x="155.417213" xlink:href="#mcb2bcfcd2b" y="42.039562"/>
     <use style="fill:#097892;stroke:#097892;" x="156.716999" xlink:href="#mcb2bcfcd2b" y="62.586816"/>
     <use style="fill:#097892;stroke:#097892;" x="160.277394" xlink:href="#mcb2bcfcd2b" y="62.686991"/>
     <use style="fill:#097892;stroke:#097892;" x="128.404798" xlink:href="#mcb2bcfcd2b" y="56.9586"/>
     <use style="fill:#097892;stroke:#097892;" x="91.293337" xlink:href="#mcb2bcfcd2b" y="153.0804"/>
     <use style="fill:#097892;stroke:#097892;" x="100.737358" xlink:href="#mcb2bcfcd2b" y="24.524637"/>
     <use style="fill:#097892;stroke:#097892;" x="105.94105" xlink:href="#mcb2bcfcd2b" y="41.118601"/>
     <use style="fill:#097892;stroke:#097892;" x="96.302006" xlink:href="#mcb2bcfcd2b" y="79.70899"/>
     <use style="fill:#097892;stroke:#097892;" x="157.857536" xlink:href="#mcb2bcfcd2b" y="32.598149"/>
     <use style="fill:#097892;stroke:#097892;" x="134.021073" xlink:href="#mcb2bcfcd2b" y="21.247721"/>
     <use style="fill:#097892;stroke:#097892;" x="97.014994" xlink:href="#mcb2bcfcd2b" y="84.691966"/>
     <use style="fill:#097892;stroke:#097892;" x="89.440751" xlink:href="#mcb2bcfcd2b" y="86.055736"/>
     <use style="fill:#097892;stroke:#097892;" x="68.187158" xlink:href="#mcb2bcfcd2b" y="-1"/>
     <use style="fill:#097892;stroke:#097892;" x="142.678565" xlink:href="#mcb2bcfcd2b" y="-1"/>
     <use style="fill:#097892;stroke:#097892;" x="171.330093" xlink:href="#mcb2bcfcd2b" y="28.789945"/>
     <use style="fill:#097892;stroke:#097892;" x="136.880595" xlink:href="#mcb2bcfcd2b" y="-1"/>
     <use style="fill:#097892;stroke:#097892;" x="117.533959" xlink:href="#mcb2bcfcd2b" y="-1"/>
     <use style="fill:#097892;stroke:#097892;" x="94.174148" xlink:href="#mcb2bcfcd2b" y="46.563658"/>
     <use style="fill:#097892;stroke:#097892;" x="67.081015" xlink:href="#mcb2bcfcd2b" y="93.241913"/>
     <use style="fill:#097892;stroke:#097892;" x="94.778918" xlink:href="#mcb2bcfcd2b" y="152.788964"/>
     <use style="fill:#097892;stroke:#097892;" x="149.069009" xlink:href="#mcb2bcfcd2b" y="56.80505"/>
     <use style="fill:#097892;stroke:#097892;" x="69.114092" xlink:href="#mcb2bcfcd2b" y="42.350728"/>
     <use style="fill:#097892;stroke:#097892;" x="118.353166" xlink:href="#mcb2bcfcd2b" y="122.273613"/>
     <use style="fill:#097892;stroke:#097892;" x="82.24084" xlink:href="#mcb2bcfcd2b" y="68.460887"/>
     <use style="fill:#097892;stroke:#097892;" x="101.6116" xlink:href="#mcb2bcfcd2b" y="116.287177"/>
     <use style="fill:#097892;stroke:#097892;" x="74.21017" xlink:href="#mcb2bcfcd2b" y="46.733138"/>
     <use style="fill:#097892;stroke:#097892;" x="83.781207" xlink:href="#mcb2bcfcd2b" y="74.679352"/>
     <use style="fill:#097892;stroke:#097892;" x="155.210212" xlink:href="#mcb2bcfcd2b" y="24.083743"/>
     <use style="fill:#097892;stroke:#097892;" x="151.52419" xlink:href="#mcb2bcfcd2b" y="40.881196"/>
     <use style="fill:#097892;stroke:#097892;" x="58.426171" xlink:href="#mcb2bcfcd2b" y="72.893027"/>
     <use style="fill:#097892;stroke:#097892;" x="103.939205" xlink:href="#mcb2bcfcd2b" y="100.494199"/>
     <use style="fill:#097892;stroke:#097892;" x="80.454223" xlink:href="#mcb2bcfcd2b" y="68.792168"/>
     <use style="fill:#097892;stroke:#097892;" x="114.212771" xlink:href="#mcb2bcfcd2b" y="77.918426"/>
     <use style="fill:#097892;stroke:#097892;" x="127.500894" xlink:href="#mcb2bcfcd2b" y="27.890989"/>
     <use style="fill:#097892;stroke:#097892;" x="109.517044" xlink:href="#mcb2bcfcd2b" y="184.40344"/>
     <use style="fill:#097892;stroke:#097892;" x="306.629657" xlink:href="#mcb2bcfcd2b" y="3.322454"/>
     <use style="fill:#097892;stroke:#097892;" x="274.361362" xlink:href="#mcb2bcfcd2b" y="-1"/>
     <use style="fill:#097892;stroke:#097892;" x="181.660841" xlink:href="#mcb2bcfcd2b" y="-1"/>
     <use style="fill:#097892;stroke:#097892;" x="123.609191" xlink:href="#mcb2bcfcd2b" y="137.305577"/>
     <use style="fill:#097892;stroke:#097892;" x="232.998252" xlink:href="#mcb2bcfcd2b" y="74.788616"/>
     <use style="fill:#097892;stroke:#097892;" x="158.740544" xlink:href="#mcb2bcfcd2b" y="62.720006"/>
     <use style="fill:#097892;stroke:#097892;" x="199.144095" xlink:href="#mcb2bcfcd2b" y="50.243882"/>
     <use style="fill:#097892;stroke:#097892;" x="251.040651" xlink:href="#mcb2bcfcd2b" y="73.05489"/>
     <use style="fill:#097892;stroke:#097892;" x="197.37974" xlink:href="#mcb2bcfcd2b" y="84.555427"/>
     <use style="fill:#097892;stroke:#097892;" x="188.305271" xlink:href="#mcb2bcfcd2b" y="-1"/>
     <use style="fill:#097892;stroke:#097892;" x="186.549859" xlink:href="#mcb2bcfcd2b" y="-1"/>
     <use style="fill:#097892;stroke:#097892;" x="182.996832" xlink:href="#mcb2bcfcd2b" y="89.442829"/>
     <use style="fill:#097892;stroke:#097892;" x="116.98975" xlink:href="#mcb2bcfcd2b" y="78.148544"/>
     <use style="fill:#097892;stroke:#097892;" x="316.215335" xlink:href="#mcb2bcfcd2b" y="31.492353"/>
     <use style="fill:#097892;stroke:#097892;" x="266.106441" xlink:href="#mcb2bcfcd2b" y="29.675416"/>
     <use style="fill:#097892;stroke:#097892;" x="91.51787" xlink:href="#mcb2bcfcd2b" y="152.735669"/>
     <use style="fill:#097892;stroke:#097892;" x="153.334704" xlink:href="#mcb2bcfcd2b" y="86.363965"/>
     <use style="fill:#097892;stroke:#097892;" x="193.792328" xlink:href="#mcb2bcfcd2b" y="-1"/>
     <use style="fill:#097892;stroke:#097892;" x="201.711124" xlink:href="#mcb2bcfcd2b" y="-1"/>
     <use style="fill:#097892;stroke:#097892;" x="112.442783" xlink:href="#mcb2bcfcd2b" y="124.559152"/>
     <use style="fill:#097892;stroke:#097892;" x="329.631419" xlink:href="#mcb2bcfcd2b" y="66.046649"/>
     <use style="fill:#097892;stroke:#097892;" x="306.272598" xlink:href="#mcb2bcfcd2b" y="31.618264"/>
     <use style="fill:#097892;stroke:#097892;" x="67.242678" xlink:href="#mcb2bcfcd2b" y="115.658022"/>
     <use style="fill:#097892;stroke:#097892;" x="90.665547" xlink:href="#mcb2bcfcd2b" y="85.27576"/>
     <use style="fill:#097892;stroke:#097892;" x="117.91379" xlink:href="#mcb2bcfcd2b" y="113.739125"/>
     <use style="fill:#097892;stroke:#097892;" x="83.333896" xlink:href="#mcb2bcfcd2b" y="86.608492"/>
     <use style="fill:#097892;stroke:#097892;" x="184.575269" xlink:href="#mcb2bcfcd2b" y="-1"/>
     <use style="fill:#097892;stroke:#097892;" x="189.464239" xlink:href="#mcb2bcfcd2b" y="-1"/>
     <use style="fill:#097892;stroke:#097892;" x="115.636133" xlink:href="#mcb2bcfcd2b" y="78.099628"/>
     <use style="fill:#097892;stroke:#097892;" x="149.443646" xlink:href="#mcb2bcfcd2b" y="106.018979"/>
     <use style="fill:#097892;stroke:#097892;" x="114.716335" xlink:href="#mcb2bcfcd2b" y="78.358816"/>
     <use style="fill:#097892;stroke:#097892;" x="87.240609" xlink:href="#mcb2bcfcd2b" y="152.203651"/>
     <use style="fill:#097892;stroke:#097892;" x="135.013625" xlink:href="#mcb2bcfcd2b" y="39.082052"/>
     <use style="fill:#097892;stroke:#097892;" x="113.852769" xlink:href="#mcb2bcfcd2b" y="78.32453"/>
     <use style="fill:#097892;stroke:#097892;" x="105.192047" xlink:href="#mcb2bcfcd2b" y="138.795465"/>
     <use style="fill:#097892;stroke:#097892;" x="130.308958" xlink:href="#mcb2bcfcd2b" y="120.649333"/>
     <use style="fill:#097892;stroke:#097892;" x="307.355801" xlink:href="#mcb2bcfcd2b" y="34.281218"/>
     <use style="fill:#097892;stroke:#097892;" x="101.971144" xlink:href="#mcb2bcfcd2b" y="74.772305"/>
     <use style="fill:#097892;stroke:#097892;" x="86.421328" xlink:href="#mcb2bcfcd2b" y="86.034762"/>
     <use style="fill:#097892;stroke:#097892;" x="74.450152" xlink:href="#mcb2bcfcd2b" y="98.424074"/>
     <use style="fill:#097892;stroke:#097892;" x="191.789769" xlink:href="#mcb2bcfcd2b" y="72.515953"/>
     <use style="fill:#097892;stroke:#097892;" x="116.697577" xlink:href="#mcb2bcfcd2b" y="26.968512"/>
     <use style="fill:#097892;stroke:#097892;" x="123.053149" xlink:href="#mcb2bcfcd2b" y="106.5459"/>
     <use style="fill:#097892;stroke:#097892;" x="111.665183" xlink:href="#mcb2bcfcd2b" y="92.24617"/>
     <use style="fill:#097892;stroke:#097892;" x="135.341748" xlink:href="#mcb2bcfcd2b" y="120.16416"/>
     <use style="fill:#097892;stroke:#097892;" x="119.954444" xlink:href="#mcb2bcfcd2b" y="122.51895"/>
     <use style="fill:#097892;stroke:#097892;" x="94.15521" xlink:href="#mcb2bcfcd2b" y="106.045373"/>
     <use style="fill:#097892;stroke:#097892;" x="188.502939" xlink:href="#mcb2bcfcd2b" y="112.093122"/>
     <use style="fill:#097892;stroke:#097892;" x="105.431369" xlink:href="#mcb2bcfcd2b" y="138.943146"/>
     <use style="fill:#097892;stroke:#097892;" x="103.830966" xlink:href="#mcb2bcfcd2b" y="96.662704"/>
     <use style="fill:#097892;stroke:#097892;" x="90.777487" xlink:href="#mcb2bcfcd2b" y="153.209507"/>
     <use style="fill:#097892;stroke:#097892;" x="121.82633" xlink:href="#mcb2bcfcd2b" y="113.395158"/>
     <use style="fill:#097892;stroke:#097892;" x="135.828913" xlink:href="#mcb2bcfcd2b" y="113.075583"/>
     <use style="fill:#097892;stroke:#097892;" x="195.697835" xlink:href="#mcb2bcfcd2b" y="22.00715"/>
     <use style="fill:#097892;stroke:#097892;" x="114.052757" xlink:href="#mcb2bcfcd2b" y="121.844345"/>
     <use style="fill:#097892;stroke:#097892;" x="149.290675" xlink:href="#mcb2bcfcd2b" y="37.843809"/>
     <use style="fill:#097892;stroke:#097892;" x="108.537734" xlink:href="#mcb2bcfcd2b" y="128.897536"/>
     <use style="fill:#097892;stroke:#097892;" x="148.812806" xlink:href="#mcb2bcfcd2b" y="42.486464"/>
     <use style="fill:#097892;stroke:#097892;" x="102.683746" xlink:href="#mcb2bcfcd2b" y="116.840877"/>
     <use style="fill:#097892;stroke:#097892;" x="230.440938" xlink:href="#mcb2bcfcd2b" y="75.050271"/>
     <use style="fill:#097892;stroke:#097892;" x="153.189201" xlink:href="#mcb2bcfcd2b" y="10.426134"/>
     <use style="fill:#097892;stroke:#097892;" x="120.681356" xlink:href="#mcb2bcfcd2b" y="91.185037"/>
     <use style="fill:#097892;stroke:#097892;" x="240.638794" xlink:href="#mcb2bcfcd2b" y="75.058073"/>
     <use style="fill:#097892;stroke:#097892;" x="139.672977" xlink:href="#mcb2bcfcd2b" y="43.988774"/>
     <use style="fill:#097892;stroke:#097892;" x="84.867983" xlink:href="#mcb2bcfcd2b" y="34.028143"/>
     <use style="fill:#097892;stroke:#097892;" x="171.501713" xlink:href="#mcb2bcfcd2b" y="54.256062"/>
     <use style="fill:#097892;stroke:#097892;" x="150.923014" xlink:href="#mcb2bcfcd2b" y="36.762109"/>
     <use style="fill:#097892;stroke:#097892;" x="75.246498" xlink:href="#mcb2bcfcd2b" y="68.932594"/>
     <use style="fill:#097892;stroke:#097892;" x="158.782899" xlink:href="#mcb2bcfcd2b" y="84.295907"/>
     <use style="fill:#097892;stroke:#097892;" x="171.119187" xlink:href="#mcb2bcfcd2b" y="36.485322"/>
     <use style="fill:#097892;stroke:#097892;" x="175.224467" xlink:href="#mcb2bcfcd2b" y="73.551873"/>
     <use style="fill:#097892;stroke:#097892;" x="247.001277" xlink:href="#mcb2bcfcd2b" y="84.907786"/>
     <use style="fill:#097892;stroke:#097892;" x="75.394918" xlink:href="#mcb2bcfcd2b" y="100.882333"/>
     <use style="fill:#097892;stroke:#097892;" x="126.052578" xlink:href="#mcb2bcfcd2b" y="104.773902"/>
     <use style="fill:#097892;stroke:#097892;" x="204.385492" xlink:href="#mcb2bcfcd2b" y="15.352787"/>
     <use style="fill:#097892;stroke:#097892;" x="169.805801" xlink:href="#mcb2bcfcd2b" y="74.686912"/>
     <use style="fill:#097892;stroke:#097892;" x="127.017331" xlink:href="#mcb2bcfcd2b" y="81.718676"/>
     <use style="fill:#097892;stroke:#097892;" x="145.060401" xlink:href="#mcb2bcfcd2b" y="71.094776"/>
     <use style="fill:#097892;stroke:#097892;" x="146.741322" xlink:href="#mcb2bcfcd2b" y="67.228466"/>
     <use style="fill:#097892;stroke:#097892;" x="129.069061" xlink:href="#mcb2bcfcd2b" y="109.997493"/>
     <use style="fill:#097892;stroke:#097892;" x="65.035261" xlink:href="#mcb2bcfcd2b" y="47.557454"/>
     <use style="fill:#097892;stroke:#097892;" x="70.861609" xlink:href="#mcb2bcfcd2b" y="101.371182"/>
     <use style="fill:#097892;stroke:#097892;" x="122.943997" xlink:href="#mcb2bcfcd2b" y="114.6414"/>
     <use style="fill:#097892;stroke:#097892;" x="202.303793" xlink:href="#mcb2bcfcd2b" y="21.095919"/>
     <use style="fill:#097892;stroke:#097892;" x="151.951077" xlink:href="#mcb2bcfcd2b" y="158.501825"/>
     <use style="fill:#097892;stroke:#097892;" x="162.589689" xlink:href="#mcb2bcfcd2b" y="114.923967"/>
     <use style="fill:#097892;stroke:#097892;" x="125.184477" xlink:href="#mcb2bcfcd2b" y="112.873047"/>
     <use style="fill:#097892;stroke:#097892;" x="177.835504" xlink:href="#mcb2bcfcd2b" y="26.649081"/>
     <use style="fill:#097892;stroke:#097892;" x="188.794605" xlink:href="#mcb2bcfcd2b" y="-1"/>
     <use style="fill:#097892;stroke:#097892;" x="174.640099" xlink:href="#mcb2bcfcd2b" y="-1"/>
     <use style="fill:#097892;stroke:#097892;" x="96.585554" xlink:href="#mcb2bcfcd2b" y="90.64472"/>
     <use style="fill:#097892;stroke:#097892;" x="103.537084" xlink:href="#mcb2bcfcd2b" y="138.849115"/>
     <use style="fill:#097892;stroke:#097892;" x="190.670737" xlink:href="#mcb2bcfcd2b" y="17.283126"/>
     <use style="fill:#097892;stroke:#097892;" x="82.605402" xlink:href="#mcb2bcfcd2b" y="32.476071"/>
     <use style="fill:#097892;stroke:#097892;" x="122.825407" xlink:href="#mcb2bcfcd2b" y="115.126426"/>
     <use style="fill:#097892;stroke:#097892;" x="88.476593" xlink:href="#mcb2bcfcd2b" y="152.468297"/>
     <use style="fill:#097892;stroke:#097892;" x="109.509841" xlink:href="#mcb2bcfcd2b" y="183.894671"/>
     <use style="fill:#097892;stroke:#097892;" x="81.809294" xlink:href="#mcb2bcfcd2b" y="75.379483"/>
     <use style="fill:#097892;stroke:#097892;" x="113.389966" xlink:href="#mcb2bcfcd2b" y="185.052807"/>
     <use style="fill:#097892;stroke:#097892;" x="96.020469" xlink:href="#mcb2bcfcd2b" y="93.763374"/>
     <use style="fill:#097892;stroke:#097892;" x="164.601203" xlink:href="#mcb2bcfcd2b" y="109.239536"/>
     <use style="fill:#097892;stroke:#097892;" x="255.078141" xlink:href="#mcb2bcfcd2b" y="72.812049"/>
     <use style="fill:#097892;stroke:#097892;" x="330.647665" xlink:href="#mcb2bcfcd2b" y="67.682525"/>
     <use style="fill:#097892;stroke:#097892;" x="139.60565" xlink:href="#mcb2bcfcd2b" y="112.011643"/>
     <use style="fill:#097892;stroke:#097892;" x="166.584759" xlink:href="#mcb2bcfcd2b" y="126.234408"/>
     <use style="fill:#097892;stroke:#097892;" x="94.740477" xlink:href="#mcb2bcfcd2b" y="92.087944"/>
     <use style="fill:#097892;stroke:#097892;" x="178.07607" xlink:href="#mcb2bcfcd2b" y="110.801518"/>
     <use style="fill:#097892;stroke:#097892;" x="176.663219" xlink:href="#mcb2bcfcd2b" y="93.002391"/>
     <use style="fill:#097892;stroke:#097892;" x="204.99402" xlink:href="#mcb2bcfcd2b" y="66.813753"/>
     <use style="fill:#097892;stroke:#097892;" x="233.292359" xlink:href="#mcb2bcfcd2b" y="63.293784"/>
     <use style="fill:#097892;stroke:#097892;" x="230.930912" xlink:href="#mcb2bcfcd2b" y="72.092035"/>
     <use style="fill:#097892;stroke:#097892;" x="164.491292" xlink:href="#mcb2bcfcd2b" y="119.467061"/>
     <use style="fill:#097892;stroke:#097892;" x="224.12095" xlink:href="#mcb2bcfcd2b" y="131.438359"/>
     <use style="fill:#097892;stroke:#097892;" x="182.26246" xlink:href="#mcb2bcfcd2b" y="92.006693"/>
     <use style="fill:#097892;stroke:#097892;" x="106.691347" xlink:href="#mcb2bcfcd2b" y="85.641305"/>
     <use style="fill:#097892;stroke:#097892;" x="111.018913" xlink:href="#mcb2bcfcd2b" y="123.564093"/>
     <use style="fill:#097892;stroke:#097892;" x="59.828675" xlink:href="#mcb2bcfcd2b" y="72.339874"/>
     <use style="fill:#097892;stroke:#097892;" x="117.372837" xlink:href="#mcb2bcfcd2b" y="76.368597"/>
     <use style="fill:#097892;stroke:#097892;" x="103.885388" xlink:href="#mcb2bcfcd2b" y="116.780149"/>
     <use style="fill:#097892;stroke:#097892;" x="106.802101" xlink:href="#mcb2bcfcd2b" y="68.790728"/>
     <use style="fill:#097892;stroke:#097892;" x="113.667751" xlink:href="#mcb2bcfcd2b" y="124.027805"/>
     <use style="fill:#097892;stroke:#097892;" x="115.08601" xlink:href="#mcb2bcfcd2b" y="76.540911"/>
     <use style="fill:#097892;stroke:#097892;" x="113.769516" xlink:href="#mcb2bcfcd2b" y="76.203867"/>
     <use style="fill:#097892;stroke:#097892;" x="110.49419" xlink:href="#mcb2bcfcd2b" y="74.643424"/>
     <use style="fill:#097892;stroke:#097892;" x="107.55342" xlink:href="#mcb2bcfcd2b" y="86.004041"/>
     <use style="fill:#097892;stroke:#097892;" x="101.112734" xlink:href="#mcb2bcfcd2b" y="116.285532"/>
     <use style="fill:#097892;stroke:#097892;" x="115.839008" xlink:href="#mcb2bcfcd2b" y="76.01146"/>
     <use style="fill:#097892;stroke:#097892;" x="117.811507" xlink:href="#mcb2bcfcd2b" y="121.490274"/>
     <use style="fill:#097892;stroke:#097892;" x="107.783752" xlink:href="#mcb2bcfcd2b" y="85.918256"/>
     <use style="fill:#097892;stroke:#097892;" x="109.276453" xlink:href="#mcb2bcfcd2b" y="86.065049"/>
     <use style="fill:#097892;stroke:#097892;" x="62.783047" xlink:href="#mcb2bcfcd2b" y="71.814387"/>
     <use style="fill:#097892;stroke:#097892;" x="59.559619" xlink:href="#mcb2bcfcd2b" y="73.903374"/>
     <use style="fill:#097892;stroke:#097892;" x="102.863927" xlink:href="#mcb2bcfcd2b" y="116.621991"/>
     <use style="fill:#097892;stroke:#097892;" x="111.766852" xlink:href="#mcb2bcfcd2b" y="124.672067"/>
     <use style="fill:#097892;stroke:#097892;" x="73.876669" xlink:href="#mcb2bcfcd2b" y="95.240509"/>
     <use style="fill:#097892;stroke:#097892;" x="100.196156" xlink:href="#mcb2bcfcd2b" y="116.805969"/>
     <use style="fill:#097892;stroke:#097892;" x="73.190733" xlink:href="#mcb2bcfcd2b" y="96.0429"/>
     <use style="fill:#097892;stroke:#097892;" x="109.027041" xlink:href="#mcb2bcfcd2b" y="85.964014"/>
     <use style="fill:#097892;stroke:#097892;" x="86.87349" xlink:href="#mcb2bcfcd2b" y="71.270495"/>
     <use style="fill:#097892;stroke:#097892;" x="103.289511" xlink:href="#mcb2bcfcd2b" y="116.996473"/>
     <use style="fill:#097892;stroke:#097892;" x="81.504948" xlink:href="#mcb2bcfcd2b" y="71.525236"/>
     <use style="fill:#097892;stroke:#097892;" x="99.725997" xlink:href="#mcb2bcfcd2b" y="69.89944"/>
     <use style="fill:#097892;stroke:#097892;" x="109.44263" xlink:href="#mcb2bcfcd2b" y="85.69683"/>
     <use style="fill:#097892;stroke:#097892;" x="103.206299" xlink:href="#mcb2bcfcd2b" y="115.572501"/>
    </g>
   </g>
   <g id="matplotlib.axis_1">
    <g id="xtick_1">
     <g id="line2d_1">
      <defs>
       <path d="M 0 0 
L 0 -6 
" id="m471f540e0a" style="stroke:#000000;"/>
      </defs>
      <g>
       <use style="stroke:#000000;" x="71.145" xlink:href="#m471f540e0a" y="208.96"/>
      </g>
     </g>
     <g id="text_1">
      <!-- 56 -->
      <defs>
       <path d="M 51.421875 22.40625 
Q 51.421875 17.234375 49.859375 12.9375 
Q 48.296875 8.640625 45.21875 5.53125 
Q 42.140625 2.4375 37.578125 0.71875 
Q 33.015625 -0.984375 27 -0.984375 
Q 21.578125 -0.984375 17.546875 0.28125 
Q 13.53125 1.5625 10.734375 3.78125 
Q 7.953125 6 6.3125 8.984375 
Q 4.6875 11.96875 4 15.375 
L 12.890625 16.40625 
Q 13.421875 14.453125 14.390625 12.625 
Q 15.375 10.796875 17.0625 9.34375 
Q 18.75 7.90625 21.21875 7.046875 
Q 23.6875 6.203125 27.203125 6.203125 
Q 30.609375 6.203125 33.390625 7.25 
Q 36.1875 8.296875 38.15625 10.34375 
Q 40.140625 12.40625 41.203125 15.375 
Q 42.28125 18.359375 42.28125 22.21875 
Q 42.28125 25.390625 41.25 28.046875 
Q 40.234375 30.71875 38.328125 32.640625 
Q 36.421875 34.578125 33.65625 35.640625 
Q 30.90625 36.71875 27.390625 36.71875 
Q 25.203125 36.71875 23.34375 36.328125 
Q 21.484375 35.9375 19.890625 35.25 
Q 18.3125 34.578125 17.015625 33.671875 
Q 15.71875 32.765625 14.59375 31.78125 
L 6 31.78125 
L 8.296875 68.796875 
L 47.40625 68.796875 
L 47.40625 61.328125 
L 16.3125 61.328125 
L 14.984375 39.5 
Q 17.328125 41.3125 20.84375 42.59375 
Q 24.359375 43.890625 29.203125 43.890625 
Q 34.328125 43.890625 38.421875 42.328125 
Q 42.53125 40.765625 45.40625 37.90625 
Q 48.296875 35.0625 49.859375 31.109375 
Q 51.421875 27.15625 51.421875 22.40625 
z
" id="LiberationSans-53"/>
       <path d="M 51.21875 22.515625 
Q 51.21875 17.328125 49.78125 13 
Q 48.34375 8.6875 45.53125 5.578125 
Q 42.71875 2.484375 38.5625 0.75 
Q 34.421875 -0.984375 29 -0.984375 
Q 23 -0.984375 18.5 1.3125 
Q 14.015625 3.609375 11.03125 7.921875 
Q 8.0625 12.25 6.5625 18.53125 
Q 5.078125 24.8125 5.078125 32.8125 
Q 5.078125 42 6.765625 48.921875 
Q 8.453125 55.859375 11.625 60.5 
Q 14.796875 65.140625 19.359375 67.484375 
Q 23.921875 69.828125 29.6875 69.828125 
Q 33.203125 69.828125 36.28125 69.09375 
Q 39.359375 68.359375 41.875 66.71875 
Q 44.390625 65.09375 46.28125 62.40625 
Q 48.1875 59.71875 49.3125 55.8125 
L 40.921875 54.296875 
Q 39.546875 58.734375 36.546875 60.71875 
Q 33.546875 62.703125 29.59375 62.703125 
Q 25.984375 62.703125 23.046875 60.984375 
Q 20.125 59.28125 18.0625 55.875 
Q 16.015625 52.484375 14.90625 47.359375 
Q 13.8125 42.234375 13.8125 35.40625 
Q 16.21875 39.84375 20.5625 42.15625 
Q 24.90625 44.484375 30.515625 44.484375 
Q 35.203125 44.484375 39.015625 42.96875 
Q 42.828125 41.453125 45.53125 38.59375 
Q 48.25 35.75 49.734375 31.671875 
Q 51.21875 27.59375 51.21875 22.515625 
z
M 42.28125 22.125 
Q 42.28125 25.6875 41.40625 28.5625 
Q 40.53125 31.453125 38.765625 33.46875 
Q 37.015625 35.5 34.421875 36.59375 
Q 31.84375 37.703125 28.421875 37.703125 
Q 26.03125 37.703125 23.578125 36.984375 
Q 21.140625 36.28125 19.15625 34.6875 
Q 17.1875 33.109375 15.9375 30.515625 
Q 14.703125 27.9375 14.703125 24.21875 
Q 14.703125 20.40625 15.671875 17.109375 
Q 16.65625 13.8125 18.484375 11.375 
Q 20.3125 8.9375 22.890625 7.515625 
Q 25.484375 6.109375 28.71875 6.109375 
Q 31.890625 6.109375 34.40625 7.203125 
Q 36.921875 8.296875 38.671875 10.375 
Q 40.4375 12.453125 41.359375 15.421875 
Q 42.28125 18.40625 42.28125 22.125 
z
" id="LiberationSans-54"/>
      </defs>
      <g transform="translate(66.140156 222.482188)scale(0.09 -0.09)">
       <use xlink:href="#LiberationSans-53"/>
       <use x="55.615234" xlink:href="#LiberationSans-54"/>
      </g>
     </g>
    </g>
    <g id="xtick_2">
     <g id="line2d_2">
      <g>
       <use style="stroke:#000000;" x="109.175" xlink:href="#m471f540e0a" y="208.96"/>
      </g>
     </g>
     <g id="text_2">
      <!-- 58 -->
      <defs>
       <path d="M 51.265625 19.1875 
Q 51.265625 14.796875 49.875 11.109375 
Q 48.484375 7.421875 45.625 4.734375 
Q 42.78125 2.046875 38.328125 0.53125 
Q 33.890625 -0.984375 27.828125 -0.984375 
Q 21.78125 -0.984375 17.359375 0.53125 
Q 12.9375 2.046875 10.03125 4.703125 
Q 7.125 7.375 5.734375 11.0625 
Q 4.34375 14.75 4.34375 19.09375 
Q 4.34375 22.859375 5.484375 25.78125 
Q 6.640625 28.71875 8.5625 30.828125 
Q 10.5 32.953125 12.96875 34.25 
Q 15.4375 35.546875 18.0625 35.984375 
L 18.0625 36.1875 
Q 15.1875 36.859375 12.90625 38.375 
Q 10.640625 39.890625 9.09375 42.015625 
Q 7.5625 44.140625 6.75 46.71875 
Q 5.953125 49.3125 5.953125 52.203125 
Q 5.953125 55.8125 7.34375 59 
Q 8.734375 62.203125 11.46875 64.625 
Q 14.203125 67.046875 18.25 68.4375 
Q 22.3125 69.828125 27.640625 69.828125 
Q 33.25 69.828125 37.375 68.40625 
Q 41.5 67 44.203125 64.578125 
Q 46.921875 62.15625 48.234375 58.9375 
Q 49.5625 55.71875 49.5625 52.09375 
Q 49.5625 49.265625 48.75 46.671875 
Q 47.953125 44.09375 46.40625 41.96875 
Q 44.875 39.84375 42.59375 38.34375 
Q 40.328125 36.859375 37.359375 36.28125 
L 37.359375 36.078125 
Q 40.328125 35.59375 42.859375 34.296875 
Q 45.40625 33.015625 47.265625 30.890625 
Q 49.125 28.765625 50.1875 25.828125 
Q 51.265625 22.90625 51.265625 19.1875 
z
M 40.4375 51.609375 
Q 40.4375 54.203125 39.765625 56.34375 
Q 39.109375 58.5 37.59375 60.03125 
Q 36.078125 61.578125 33.640625 62.421875 
Q 31.203125 63.28125 27.640625 63.28125 
Q 24.171875 63.28125 21.78125 62.421875 
Q 19.390625 61.578125 17.84375 60.03125 
Q 16.3125 58.5 15.625 56.34375 
Q 14.9375 54.203125 14.9375 51.609375 
Q 14.9375 49.5625 15.46875 47.40625 
Q 16.015625 45.265625 17.421875 43.5 
Q 18.84375 41.75 21.328125 40.625 
Q 23.828125 39.5 27.734375 39.5 
Q 31.890625 39.5 34.40625 40.625 
Q 36.921875 41.75 38.25 43.5 
Q 39.59375 45.265625 40.015625 47.40625 
Q 40.4375 49.5625 40.4375 51.609375 
z
M 42.140625 20.015625 
Q 42.140625 22.515625 41.453125 24.828125 
Q 40.765625 27.15625 39.109375 28.9375 
Q 37.453125 30.71875 34.640625 31.8125 
Q 31.84375 32.90625 27.640625 32.90625 
Q 23.78125 32.90625 21.0625 31.8125 
Q 18.359375 30.71875 16.671875 28.90625 
Q 14.984375 27.09375 14.203125 24.71875 
Q 13.421875 22.359375 13.421875 19.828125 
Q 13.421875 16.65625 14.203125 14.03125 
Q 14.984375 11.421875 16.6875 9.546875 
Q 18.40625 7.671875 21.1875 6.640625 
Q 23.96875 5.609375 27.9375 5.609375 
Q 31.9375 5.609375 34.671875 6.640625 
Q 37.40625 7.671875 39.0625 9.546875 
Q 40.71875 11.421875 41.421875 14.078125 
Q 42.140625 16.75 42.140625 20.015625 
z
" id="LiberationSans-56"/>
      </defs>
      <g transform="translate(104.170156 222.482188)scale(0.09 -0.09)">
       <use xlink:href="#LiberationSans-53"/>
       <use x="55.615234" xlink:href="#LiberationSans-56"/>
      </g>
     </g>
    </g>
    <g id="xtick_3">
     <g id="line2d_3">
      <g>
       <use style="stroke:#000000;" x="147.205" xlink:href="#m471f540e0a" y="208.96"/>
      </g>
     </g>
     <g id="text_3">
      <!-- 60 -->
      <defs>
       <path d="M 51.703125 34.421875 
Q 51.703125 24.515625 49.828125 17.75 
Q 47.953125 10.984375 44.703125 6.8125 
Q 41.453125 2.640625 37.0625 0.828125 
Q 32.671875 -0.984375 27.6875 -0.984375 
Q 22.65625 -0.984375 18.3125 0.828125 
Q 13.96875 2.640625 10.765625 6.78125 
Q 7.5625 10.9375 5.734375 17.703125 
Q 3.90625 24.46875 3.90625 34.421875 
Q 3.90625 44.828125 5.734375 51.640625 
Q 7.5625 58.453125 10.78125 62.5 
Q 14.015625 66.546875 18.40625 68.1875 
Q 22.796875 69.828125 27.984375 69.828125 
Q 32.90625 69.828125 37.21875 68.1875 
Q 41.546875 66.546875 44.765625 62.5 
Q 48 58.453125 49.84375 51.640625 
Q 51.703125 44.828125 51.703125 34.421875 
z
M 42.78125 34.421875 
Q 42.78125 42.625 41.796875 48.0625 
Q 40.828125 53.515625 38.921875 56.765625 
Q 37.015625 60.015625 34.25 61.359375 
Q 31.5 62.703125 27.984375 62.703125 
Q 24.265625 62.703125 21.4375 61.328125 
Q 18.609375 59.96875 16.671875 56.71875 
Q 14.75 53.46875 13.765625 48.015625 
Q 12.796875 42.578125 12.796875 34.421875 
Q 12.796875 26.515625 13.796875 21.09375 
Q 14.796875 15.671875 16.71875 12.375 
Q 18.65625 9.078125 21.4375 7.640625 
Q 24.21875 6.203125 27.78125 6.203125 
Q 31.25 6.203125 34.03125 7.640625 
Q 36.8125 9.078125 38.734375 12.375 
Q 40.671875 15.671875 41.71875 21.09375 
Q 42.78125 26.515625 42.78125 34.421875 
z
" id="LiberationSans-48"/>
      </defs>
      <g transform="translate(142.200156 222.482188)scale(0.09 -0.09)">
       <use xlink:href="#LiberationSans-54"/>
       <use x="55.615234" xlink:href="#LiberationSans-48"/>
      </g>
     </g>
    </g>
    <g id="xtick_4">
     <g id="line2d_4">
      <g>
       <use style="stroke:#000000;" x="185.235" xlink:href="#m471f540e0a" y="208.96"/>
      </g>
     </g>
     <g id="text_4">
      <!-- 62 -->
      <defs>
       <path d="M 5.03125 0 
L 5.03125 6.203125 
Q 7.515625 11.921875 11.109375 16.28125 
Q 14.703125 20.65625 18.65625 24.1875 
Q 22.609375 27.734375 26.484375 30.765625 
Q 30.375 33.796875 33.5 36.8125 
Q 36.625 39.84375 38.546875 43.15625 
Q 40.484375 46.484375 40.484375 50.6875 
Q 40.484375 53.609375 39.59375 55.828125 
Q 38.71875 58.0625 37.0625 59.5625 
Q 35.40625 61.078125 33.078125 61.828125 
Q 30.765625 62.59375 27.9375 62.59375 
Q 25.296875 62.59375 22.96875 61.859375 
Q 20.65625 61.140625 18.84375 59.671875 
Q 17.046875 58.203125 15.890625 56.03125 
Q 14.75 53.859375 14.40625 50.984375 
L 5.421875 51.8125 
Q 5.859375 55.515625 7.46875 58.78125 
Q 9.078125 62.0625 11.90625 64.53125 
Q 14.75 67 18.71875 68.40625 
Q 22.703125 69.828125 27.9375 69.828125 
Q 33.0625 69.828125 37.0625 68.609375 
Q 41.0625 67.390625 43.8125 64.984375 
Q 46.578125 62.59375 48.046875 59.078125 
Q 49.515625 55.5625 49.515625 50.984375 
Q 49.515625 47.515625 48.265625 44.390625 
Q 47.015625 41.265625 44.9375 38.421875 
Q 42.875 35.59375 40.140625 32.953125 
Q 37.40625 30.328125 34.421875 27.8125 
Q 31.453125 25.296875 28.421875 22.828125 
Q 25.390625 20.359375 22.71875 17.859375 
Q 20.0625 15.375 17.96875 12.8125 
Q 15.875 10.25 14.703125 7.46875 
L 50.59375 7.46875 
L 50.59375 0 
z
" id="LiberationSans-50"/>
      </defs>
      <g transform="translate(180.230156 222.482188)scale(0.09 -0.09)">
       <use xlink:href="#LiberationSans-54"/>
       <use x="55.615234" xlink:href="#LiberationSans-50"/>
      </g>
     </g>
    </g>
    <g id="xtick_5">
     <g id="line2d_5">
      <g>
       <use style="stroke:#000000;" x="223.265" xlink:href="#m471f540e0a" y="208.96"/>
      </g>
     </g>
     <g id="text_5">
      <!-- 64 -->
      <defs>
       <path d="M 43.015625 15.578125 
L 43.015625 0 
L 34.71875 0 
L 34.71875 15.578125 
L 2.296875 15.578125 
L 2.296875 22.40625 
L 33.796875 68.796875 
L 43.015625 68.796875 
L 43.015625 22.515625 
L 52.6875 22.515625 
L 52.6875 15.578125 
z
M 34.71875 58.890625 
Q 34.625 58.640625 34.234375 57.9375 
Q 33.84375 57.234375 33.34375 56.34375 
Q 32.859375 55.46875 32.34375 54.5625 
Q 31.84375 53.65625 31.453125 53.078125 
L 13.8125 27.09375 
Q 13.578125 26.703125 13.109375 26.0625 
Q 12.640625 25.4375 12.15625 24.78125 
Q 11.671875 24.125 11.171875 23.484375 
Q 10.6875 22.859375 10.40625 22.515625 
L 34.71875 22.515625 
z
" id="LiberationSans-52"/>
      </defs>
      <g transform="translate(218.260156 222.482188)scale(0.09 -0.09)">
       <use xlink:href="#LiberationSans-54"/>
       <use x="55.615234" xlink:href="#LiberationSans-52"/>
      </g>
     </g>
    </g>
    <g id="text_6">
     <!-- Volume per f.u. ($\mathrm{\AA^3}$) -->
     <defs>
      <path d="M 38.1875 0 
L 28.515625 0 
L 0.4375 68.796875 
L 10.25 68.796875 
L 29.296875 20.359375 
Q 30.03125 18.171875 30.765625 15.984375 
Q 31.5 13.8125 32.078125 12.109375 
Q 32.765625 10.109375 33.40625 8.203125 
Q 33.984375 10.015625 34.671875 12.015625 
Q 35.25 13.71875 35.953125 15.859375 
Q 36.671875 18.015625 37.5 20.359375 
L 56.453125 68.796875 
L 66.265625 68.796875 
z
" id="LiberationSans-86"/>
      <path d="M 51.421875 26.46875 
Q 51.421875 12.59375 45.3125 5.796875 
Q 39.203125 -0.984375 27.59375 -0.984375 
Q 22.078125 -0.984375 17.71875 0.671875 
Q 13.375 2.34375 10.375 5.765625 
Q 7.375 9.1875 5.78125 14.328125 
Q 4.203125 19.484375 4.203125 26.46875 
Q 4.203125 53.8125 27.875 53.8125 
Q 34.03125 53.8125 38.5 52.09375 
Q 42.96875 50.390625 45.828125 46.96875 
Q 48.6875 43.5625 50.046875 38.421875 
Q 51.421875 33.296875 51.421875 26.46875 
z
M 42.1875 26.46875 
Q 42.1875 32.625 41.234375 36.625 
Q 40.28125 40.625 38.453125 43.015625 
Q 36.625 45.40625 33.984375 46.359375 
Q 31.34375 47.3125 28.03125 47.3125 
Q 24.65625 47.3125 21.9375 46.3125 
Q 19.234375 45.3125 17.328125 42.890625 
Q 15.4375 40.484375 14.421875 36.46875 
Q 13.421875 32.46875 13.421875 26.46875 
Q 13.421875 20.3125 14.5 16.28125 
Q 15.578125 12.25 17.453125 9.859375 
Q 19.34375 7.46875 21.90625 6.484375 
Q 24.46875 5.515625 27.484375 5.515625 
Q 30.859375 5.515625 33.59375 6.46875 
Q 36.328125 7.421875 38.234375 9.8125 
Q 40.140625 12.203125 41.15625 16.25 
Q 42.1875 20.3125 42.1875 26.46875 
z
" id="LiberationSans-111"/>
      <path d="M 6.734375 0 
L 6.734375 72.46875 
L 15.53125 72.46875 
L 15.53125 0 
z
" id="LiberationSans-108"/>
      <path d="M 15.328125 52.828125 
L 15.328125 19.34375 
Q 15.328125 15.484375 15.890625 12.890625 
Q 16.453125 10.296875 17.71875 8.703125 
Q 19 7.125 21.0625 6.46875 
Q 23.140625 5.8125 26.21875 5.8125 
Q 29.34375 5.8125 31.859375 6.90625 
Q 34.375 8.015625 36.15625 10.078125 
Q 37.9375 12.15625 38.90625 15.203125 
Q 39.890625 18.265625 39.890625 22.21875 
L 39.890625 52.828125 
L 48.6875 52.828125 
L 48.6875 11.28125 
Q 48.6875 9.625 48.703125 7.78125 
Q 48.734375 5.953125 48.78125 4.3125 
Q 48.828125 2.6875 48.875 1.515625 
Q 48.921875 0.34375 48.96875 0 
L 40.671875 0 
Q 40.625 0.25 40.578125 1.3125 
Q 40.53125 2.390625 40.453125 3.78125 
Q 40.375 5.171875 40.328125 6.609375 
Q 40.28125 8.0625 40.28125 9.03125 
L 40.140625 9.03125 
Q 38.875 6.734375 37.359375 4.875 
Q 35.84375 3.03125 33.84375 1.734375 
Q 31.84375 0.4375 29.25 -0.265625 
Q 26.65625 -0.984375 23.25 -0.984375 
Q 18.84375 -0.984375 15.671875 0.09375 
Q 12.5 1.171875 10.453125 3.421875 
Q 8.40625 5.671875 7.453125 9.1875 
Q 6.5 12.703125 6.5 17.625 
L 6.5 52.828125 
z
" id="LiberationSans-117"/>
      <path d="M 37.5 0 
L 37.5 33.5 
Q 37.5 37.359375 37.015625 39.9375 
Q 36.53125 42.53125 35.375 44.109375 
Q 34.234375 45.703125 32.375 46.359375 
Q 30.515625 47.015625 27.828125 47.015625 
Q 25.046875 47.015625 22.796875 45.921875 
Q 20.5625 44.828125 18.96875 42.75 
Q 17.390625 40.671875 16.53125 37.625 
Q 15.671875 34.578125 15.671875 30.609375 
L 15.671875 0 
L 6.9375 0 
L 6.9375 41.546875 
Q 6.9375 43.21875 6.90625 45.046875 
Q 6.890625 46.875 6.828125 48.5 
Q 6.78125 50.140625 6.734375 51.3125 
Q 6.6875 52.484375 6.640625 52.828125 
L 14.9375 52.828125 
Q 14.984375 52.59375 15.03125 51.515625 
Q 15.09375 50.4375 15.15625 49.046875 
Q 15.234375 47.65625 15.28125 46.21875 
Q 15.328125 44.78125 15.328125 43.796875 
L 15.484375 43.796875 
Q 16.65625 46.09375 18.015625 47.953125 
Q 19.390625 49.8125 21.21875 51.09375 
Q 23.046875 52.390625 25.40625 53.09375 
Q 27.78125 53.8125 30.90625 53.8125 
Q 36.921875 53.8125 40.40625 51.421875 
Q 43.890625 49.03125 45.265625 43.796875 
L 45.40625 43.796875 
Q 46.578125 46.09375 48.046875 47.953125 
Q 49.515625 49.8125 51.46875 51.09375 
Q 53.421875 52.390625 55.859375 53.09375 
Q 58.296875 53.8125 61.421875 53.8125 
Q 65.4375 53.8125 68.328125 52.734375 
Q 71.234375 51.65625 73.09375 49.40625 
Q 74.953125 47.171875 75.828125 43.625 
Q 76.703125 40.09375 76.703125 35.203125 
L 76.703125 0 
L 68.015625 0 
L 68.015625 33.5 
Q 68.015625 37.359375 67.53125 39.9375 
Q 67.046875 42.53125 65.890625 44.109375 
Q 64.75 45.703125 62.890625 46.359375 
Q 61.03125 47.015625 58.34375 47.015625 
Q 55.5625 47.015625 53.3125 45.96875 
Q 51.078125 44.921875 49.484375 42.875 
Q 47.90625 40.828125 47.046875 37.75 
Q 46.1875 34.671875 46.1875 30.609375 
L 46.1875 0 
z
" id="LiberationSans-109"/>
      <path d="M 13.484375 24.5625 
Q 13.484375 20.40625 14.328125 16.90625 
Q 15.1875 13.421875 16.96875 10.90625 
Q 18.75 8.40625 21.53125 7 
Q 24.3125 5.609375 28.21875 5.609375 
Q 33.9375 5.609375 37.375 7.90625 
Q 40.828125 10.203125 42.046875 13.71875 
L 49.75 11.53125 
Q 48.921875 9.328125 47.4375 7.109375 
Q 45.953125 4.890625 43.453125 3.09375 
Q 40.96875 1.3125 37.234375 0.15625 
Q 33.5 -0.984375 28.21875 -0.984375 
Q 16.5 -0.984375 10.375 6 
Q 4.25 12.984375 4.25 26.765625 
Q 4.25 34.1875 6.09375 39.328125 
Q 7.953125 44.484375 11.171875 47.703125 
Q 14.40625 50.921875 18.703125 52.359375 
Q 23 53.8125 27.875 53.8125 
Q 34.515625 53.8125 38.984375 51.65625 
Q 43.453125 49.515625 46.15625 45.71875 
Q 48.875 41.9375 50.015625 36.8125 
Q 51.171875 31.6875 51.171875 25.734375 
L 51.171875 24.5625 
z
M 42.09375 31.296875 
Q 41.359375 39.65625 37.84375 43.484375 
Q 34.328125 47.3125 27.734375 47.3125 
Q 25.53125 47.3125 23.109375 46.609375 
Q 20.703125 45.90625 18.65625 44.09375 
Q 16.609375 42.28125 15.1875 39.171875 
Q 13.765625 36.078125 13.578125 31.296875 
z
" id="LiberationSans-101"/>
      <path id="LiberationSans-32"/>
      <path d="M 51.421875 26.65625 
Q 51.421875 20.65625 50.4375 15.578125 
Q 49.46875 10.5 47.1875 6.828125 
Q 44.921875 3.171875 41.1875 1.09375 
Q 37.453125 -0.984375 31.984375 -0.984375 
Q 26.3125 -0.984375 22.0625 1.171875 
Q 17.828125 3.328125 15.578125 8.203125 
L 15.328125 8.203125 
Q 15.375 8.109375 15.40625 7.328125 
Q 15.4375 6.546875 15.453125 5.375 
Q 15.484375 4.203125 15.5 2.75 
Q 15.53125 1.3125 15.53125 -0.09375 
L 15.53125 -20.75 
L 6.734375 -20.75 
L 6.734375 42.046875 
Q 6.734375 43.953125 6.703125 45.703125 
Q 6.6875 47.46875 6.640625 48.90625 
Q 6.59375 50.34375 6.546875 51.359375 
Q 6.5 52.390625 6.453125 52.828125 
L 14.9375 52.828125 
Q 14.984375 52.6875 15.0625 51.796875 
Q 15.140625 50.921875 15.203125 49.671875 
Q 15.28125 48.4375 15.359375 47.015625 
Q 15.4375 45.609375 15.4375 44.34375 
L 15.625 44.34375 
Q 16.84375 46.875 18.40625 48.65625 
Q 19.96875 50.4375 21.96875 51.578125 
Q 23.96875 52.734375 26.4375 53.25 
Q 28.90625 53.765625 31.984375 53.765625 
Q 37.453125 53.765625 41.1875 51.8125 
Q 44.921875 49.859375 47.1875 46.3125 
Q 49.46875 42.78125 50.4375 37.765625 
Q 51.421875 32.765625 51.421875 26.65625 
z
M 42.1875 26.46875 
Q 42.1875 31.34375 41.59375 35.15625 
Q 41.015625 38.96875 39.578125 41.59375 
Q 38.140625 44.234375 35.734375 45.59375 
Q 33.34375 46.96875 29.734375 46.96875 
Q 26.8125 46.96875 24.21875 46.140625 
Q 21.625 45.3125 19.703125 42.96875 
Q 17.78125 40.625 16.65625 36.5 
Q 15.53125 32.375 15.53125 25.78125 
Q 15.53125 20.171875 16.453125 16.28125 
Q 17.390625 12.40625 19.171875 10.015625 
Q 20.953125 7.625 23.578125 6.5625 
Q 26.21875 5.515625 29.640625 5.515625 
Q 33.296875 5.515625 35.71875 6.921875 
Q 38.140625 8.34375 39.578125 11.03125 
Q 41.015625 13.71875 41.59375 17.59375 
Q 42.1875 21.484375 42.1875 26.46875 
z
" id="LiberationSans-112"/>
      <path d="M 6.9375 0 
L 6.9375 40.53125 
Q 6.9375 42.1875 6.90625 43.921875 
Q 6.890625 45.65625 6.828125 47.265625 
Q 6.78125 48.875 6.734375 50.28125 
Q 6.6875 51.703125 6.640625 52.828125 
L 14.9375 52.828125 
Q 14.984375 51.703125 15.0625 50.265625 
Q 15.140625 48.828125 15.203125 47.3125 
Q 15.28125 45.796875 15.296875 44.40625 
Q 15.328125 43.015625 15.328125 42.046875 
L 15.53125 42.046875 
Q 16.453125 45.0625 17.5 47.28125 
Q 18.5625 49.515625 19.96875 50.953125 
Q 21.390625 52.390625 23.34375 53.09375 
Q 25.296875 53.8125 28.078125 53.8125 
Q 29.15625 53.8125 30.125 53.640625 
Q 31.109375 53.46875 31.640625 53.328125 
L 31.640625 45.265625 
Q 30.765625 45.515625 29.59375 45.625 
Q 28.421875 45.75 26.953125 45.75 
Q 23.921875 45.75 21.796875 44.375 
Q 19.671875 43.015625 18.328125 40.59375 
Q 17 38.1875 16.359375 34.84375 
Q 15.71875 31.5 15.71875 27.546875 
L 15.71875 0 
z
" id="LiberationSans-114"/>
      <path d="M 17.625 46.4375 
L 17.625 0 
L 8.84375 0 
L 8.84375 46.4375 
L 1.421875 46.4375 
L 1.421875 52.828125 
L 8.84375 52.828125 
L 8.84375 58.796875 
Q 8.84375 61.671875 9.375 64.140625 
Q 9.90625 66.609375 11.34375 68.4375 
Q 12.796875 70.265625 15.28125 71.3125 
Q 17.78125 72.359375 21.734375 72.359375 
Q 23.296875 72.359375 24.96875 72.21875 
Q 26.65625 72.078125 27.9375 71.78125 
L 27.9375 65.09375 
Q 27.09375 65.234375 26 65.359375 
Q 24.90625 65.484375 24.03125 65.484375 
Q 22.078125 65.484375 20.828125 64.9375 
Q 19.578125 64.40625 18.875 63.40625 
Q 18.171875 62.40625 17.890625 60.9375 
Q 17.625 59.46875 17.625 57.5625 
L 17.625 52.828125 
L 27.9375 52.828125 
L 27.9375 46.4375 
z
" id="LiberationSans-102"/>
      <path d="M 9.125 0 
L 9.125 10.6875 
L 18.65625 10.6875 
L 18.65625 0 
z
" id="LiberationSans-46"/>
      <path d="M 6.203125 25.984375 
Q 6.203125 32.765625 7.21875 38.96875 
Q 8.25 45.171875 10.4375 50.875 
Q 12.640625 56.59375 16.0625 61.953125 
Q 19.484375 67.328125 24.21875 72.46875 
L 32.71875 72.46875 
Q 28.125 67.328125 24.78125 61.9375 
Q 21.4375 56.546875 19.28125 50.796875 
Q 17.140625 45.0625 16.09375 38.859375 
Q 15.046875 32.671875 15.046875 25.875 
Q 15.046875 19.09375 16.09375 12.890625 
Q 17.140625 6.6875 19.28125 0.921875 
Q 21.4375 -4.828125 24.78125 -10.203125 
Q 28.125 -15.578125 32.71875 -20.703125 
L 24.21875 -20.703125 
Q 19.484375 -15.578125 16.0625 -10.203125 
Q 12.640625 -4.828125 10.4375 0.875 
Q 8.25 6.59375 7.21875 12.765625 
Q 6.203125 18.953125 6.203125 25.78125 
z
" id="LiberationSans-40"/>
      <path d="M 41.609375 79.390625 
Q 41.609375 82.46875 39.421875 84.640625 
Q 37.25 86.8125 34.1875 86.8125 
Q 31.0625 86.8125 28.9375 84.6875 
Q 26.8125 82.5625 26.8125 79.390625 
Q 26.8125 76.3125 28.953125 74.15625 
Q 31.109375 72.015625 34.1875 72.015625 
Q 37.25 72.015625 39.421875 74.15625 
Q 41.609375 76.3125 41.609375 79.390625 
z
M 34.1875 63.1875 
L 20.90625 26.90625 
L 47.515625 26.90625 
z
M 26.8125 68.21875 
Q 23.828125 70.21875 22.3125 73.015625 
Q 20.796875 75.828125 20.796875 79.390625 
Q 20.796875 85.015625 24.671875 88.921875 
Q 28.5625 92.828125 34.1875 92.828125 
Q 39.75 92.828125 43.671875 88.890625 
Q 47.609375 84.96875 47.609375 79.390625 
Q 47.609375 75.984375 46.0625 73.09375 
Q 44.53125 70.21875 41.609375 68.21875 
L 67.578125 0 
L 57.328125 0 
L 50.6875 18.703125 
L 17.828125 18.703125 
L 11.1875 0 
L 0.78125 0 
z
" id="DejaVuSans-197"/>
      <path d="M 40.578125 39.3125 
Q 47.65625 37.796875 51.625 33 
Q 55.609375 28.21875 55.609375 21.1875 
Q 55.609375 10.40625 48.1875 4.484375 
Q 40.765625 -1.421875 27.09375 -1.421875 
Q 22.515625 -1.421875 17.65625 -0.515625 
Q 12.796875 0.390625 7.625 2.203125 
L 7.625 11.71875 
Q 11.71875 9.328125 16.59375 8.109375 
Q 21.484375 6.890625 26.8125 6.890625 
Q 36.078125 6.890625 40.9375 10.546875 
Q 45.796875 14.203125 45.796875 21.1875 
Q 45.796875 27.640625 41.28125 31.265625 
Q 36.765625 34.90625 28.71875 34.90625 
L 20.21875 34.90625 
L 20.21875 43.015625 
L 29.109375 43.015625 
Q 36.375 43.015625 40.234375 45.921875 
Q 44.09375 48.828125 44.09375 54.296875 
Q 44.09375 59.90625 40.109375 62.90625 
Q 36.140625 65.921875 28.71875 65.921875 
Q 24.65625 65.921875 20.015625 65.03125 
Q 15.375 64.15625 9.8125 62.3125 
L 9.8125 71.09375 
Q 15.4375 72.65625 20.34375 73.4375 
Q 25.25 74.21875 29.59375 74.21875 
Q 40.828125 74.21875 47.359375 69.109375 
Q 53.90625 64.015625 53.90625 55.328125 
Q 53.90625 49.265625 50.4375 45.09375 
Q 46.96875 40.921875 40.578125 39.3125 
z
" id="DejaVuSans-51"/>
      <path d="M 27.09375 25.78125 
Q 27.09375 18.953125 26.0625 12.765625 
Q 25.046875 6.59375 22.84375 0.875 
Q 20.65625 -4.828125 17.234375 -10.203125 
Q 13.8125 -15.578125 9.078125 -20.703125 
L 0.59375 -20.703125 
Q 5.171875 -15.578125 8.515625 -10.203125 
Q 11.859375 -4.828125 14 0.921875 
Q 16.15625 6.6875 17.203125 12.890625 
Q 18.265625 19.09375 18.265625 25.875 
Q 18.265625 32.671875 17.203125 38.859375 
Q 16.15625 45.0625 14 50.796875 
Q 11.859375 56.546875 8.515625 61.9375 
Q 5.171875 67.328125 0.59375 72.46875 
L 9.078125 72.46875 
Q 13.8125 67.328125 17.234375 61.953125 
Q 20.65625 56.59375 22.84375 50.875 
Q 25.046875 45.171875 26.0625 38.96875 
Q 27.09375 32.765625 27.09375 25.984375 
z
" id="LiberationSans-41"/>
     </defs>
     <g transform="translate(107.155 236.719687)scale(0.09 -0.09)">
      <use transform="translate(0 0.171875)" xlink:href="#LiberationSans-86"/>
      <use transform="translate(66.699219 0.171875)" xlink:href="#LiberationSans-111"/>
      <use transform="translate(122.314453 0.171875)" xlink:href="#LiberationSans-108"/>
      <use transform="translate(144.53125 0.171875)" xlink:href="#LiberationSans-117"/>
      <use transform="translate(200.146484 0.171875)" xlink:href="#LiberationSans-109"/>
      <use transform="translate(283.447266 0.171875)" xlink:href="#LiberationSans-101"/>
      <use transform="translate(339.0625 0.171875)" xlink:href="#LiberationSans-32"/>
      <use transform="translate(366.845703 0.171875)" xlink:href="#LiberationSans-112"/>
      <use transform="translate(422.460938 0.171875)" xlink:href="#LiberationSans-101"/>
      <use transform="translate(478.076172 0.171875)" xlink:href="#LiberationSans-114"/>
      <use transform="translate(511.376953 0.171875)" xlink:href="#LiberationSans-32"/>
      <use transform="translate(539.160156 0.171875)" xlink:href="#LiberationSans-102"/>
      <use transform="translate(566.943359 0.171875)" xlink:href="#LiberationSans-46"/>
      <use transform="translate(594.726562 0.171875)" xlink:href="#LiberationSans-117"/>
      <use transform="translate(650.341797 0.171875)" xlink:href="#LiberationSans-46"/>
      <use transform="translate(678.125 0.171875)" xlink:href="#LiberationSans-32"/>
      <use transform="translate(705.908203 0.171875)" xlink:href="#LiberationSans-40"/>
      <use transform="translate(739.208984 0.171875)" xlink:href="#DejaVuSans-197"/>
      <use transform="translate(808.574219 38.453125)scale(0.7)" xlink:href="#DejaVuSans-51"/>
      <use transform="translate(855.844727 0.171875)" xlink:href="#LiberationSans-41"/>
     </g>
    </g>
   </g>
   <g id="matplotlib.axis_2">
    <g id="ytick_1">
     <g id="line2d_6">
      <defs>
       <path d="M 0 0 
L 6 0 
" id="m46929ada07" style="stroke:#000000;"/>
      </defs>
      <g>
       <use style="stroke:#000000;" x="52.13" xlink:href="#m46929ada07" y="208.96"/>
      </g>
     </g>
     <g id="text_7">
      <!-- 3.56 -->
      <defs>
       <path d="M 4.9375 29.6875 
L 4.9375 36.8125 
L 53.515625 36.8125 
L 53.515625 29.6875 
z
" id="LiberationSans-8722"/>
       <path d="M 51.21875 19 
Q 51.21875 14.265625 49.671875 10.546875 
Q 48.140625 6.84375 45.1875 4.265625 
Q 42.234375 1.703125 37.859375 0.359375 
Q 33.5 -0.984375 27.875 -0.984375 
Q 21.484375 -0.984375 17.109375 0.609375 
Q 12.75 2.203125 9.90625 4.8125 
Q 7.078125 7.421875 5.65625 10.765625 
Q 4.25 14.109375 3.8125 17.671875 
L 12.890625 18.5 
Q 13.28125 15.765625 14.328125 13.515625 
Q 15.375 11.28125 17.1875 9.671875 
Q 19 8.0625 21.625 7.171875 
Q 24.265625 6.296875 27.875 6.296875 
Q 34.515625 6.296875 38.296875 9.5625 
Q 42.09375 12.84375 42.09375 19.28125 
Q 42.09375 23.09375 40.40625 25.40625 
Q 38.71875 27.734375 36.203125 29.03125 
Q 33.6875 30.328125 30.734375 30.765625 
Q 27.78125 31.203125 25.296875 31.203125 
L 20.3125 31.203125 
L 20.3125 38.8125 
L 25.09375 38.8125 
Q 27.59375 38.8125 30.265625 39.328125 
Q 32.953125 39.84375 35.171875 41.1875 
Q 37.40625 42.53125 38.84375 44.828125 
Q 40.28125 47.125 40.28125 50.6875 
Q 40.28125 56.203125 37.03125 59.390625 
Q 33.796875 62.59375 27.390625 62.59375 
Q 21.578125 62.59375 17.984375 59.609375 
Q 14.40625 56.640625 13.8125 51.21875 
L 4.984375 51.90625 
Q 5.515625 56.453125 7.46875 59.8125 
Q 9.421875 63.1875 12.421875 65.40625 
Q 15.4375 67.625 19.28125 68.71875 
Q 23.140625 69.828125 27.484375 69.828125 
Q 33.25 69.828125 37.390625 68.375 
Q 41.546875 66.9375 44.1875 64.46875 
Q 46.828125 62.015625 48.0625 58.6875 
Q 49.3125 55.375 49.3125 51.609375 
Q 49.3125 48.578125 48.484375 45.9375 
Q 47.65625 43.3125 45.890625 41.203125 
Q 44.140625 39.109375 41.421875 37.59375 
Q 38.71875 36.078125 34.90625 35.296875 
L 34.90625 35.109375 
Q 39.0625 34.671875 42.140625 33.21875 
Q 45.21875 31.78125 47.21875 29.625 
Q 49.21875 27.484375 50.21875 24.75 
Q 51.21875 22.015625 51.21875 19 
z
" id="LiberationSans-51"/>
      </defs>
      <g transform="translate(22.358594 212.221094)scale(0.09 -0.09)">
       <use xlink:href="#LiberationSans-8722"/>
       <use x="58.398438" xlink:href="#LiberationSans-51"/>
       <use x="114.013672" xlink:href="#LiberationSans-46"/>
       <use x="141.796875" xlink:href="#LiberationSans-53"/>
       <use x="197.412109" xlink:href="#LiberationSans-54"/>
      </g>
     </g>
    </g>
    <g id="ytick_2">
     <g id="line2d_7">
      <g>
       <use style="stroke:#000000;" x="52.13" xlink:href="#m46929ada07" y="176.293333"/>
      </g>
     </g>
     <g id="text_8">
      <!-- 3.55 -->
      <g transform="translate(22.358594 179.554427)scale(0.09 -0.09)">
       <use xlink:href="#LiberationSans-8722"/>
       <use x="58.398438" xlink:href="#LiberationSans-51"/>
       <use x="114.013672" xlink:href="#LiberationSans-46"/>
       <use x="141.796875" xlink:href="#LiberationSans-53"/>
       <use x="197.412109" xlink:href="#LiberationSans-53"/>
      </g>
     </g>
    </g>
    <g id="ytick_3">
     <g id="line2d_8">
      <g>
       <use style="stroke:#000000;" x="52.13" xlink:href="#m46929ada07" y="143.626667"/>
      </g>
     </g>
     <g id="text_9">
      <!-- 3.54 -->
      <g transform="translate(22.358594 146.88776)scale(0.09 -0.09)">
       <use xlink:href="#LiberationSans-8722"/>
       <use x="58.398438" xlink:href="#LiberationSans-51"/>
       <use x="114.013672" xlink:href="#LiberationSans-46"/>
       <use x="141.796875" xlink:href="#LiberationSans-53"/>
       <use x="197.412109" xlink:href="#LiberationSans-52"/>
      </g>
     </g>
    </g>
    <g id="ytick_4">
     <g id="line2d_9">
      <g>
       <use style="stroke:#000000;" x="52.13" xlink:href="#m46929ada07" y="110.96"/>
      </g>
     </g>
     <g id="text_10">
      <!-- 3.53 -->
      <g transform="translate(22.358594 114.221094)scale(0.09 -0.09)">
       <use xlink:href="#LiberationSans-8722"/>
       <use x="58.398438" xlink:href="#LiberationSans-51"/>
       <use x="114.013672" xlink:href="#LiberationSans-46"/>
       <use x="141.796875" xlink:href="#LiberationSans-53"/>
       <use x="197.412109" xlink:href="#LiberationSans-51"/>
      </g>
     </g>
    </g>
    <g id="ytick_5">
     <g id="line2d_10">
      <g>
       <use style="stroke:#000000;" x="52.13" xlink:href="#m46929ada07" y="78.293333"/>
      </g>
     </g>
     <g id="text_11">
      <!-- 3.52 -->
      <g transform="translate(22.358594 81.554427)scale(0.09 -0.09)">
       <use xlink:href="#LiberationSans-8722"/>
       <use x="58.398438" xlink:href="#LiberationSans-51"/>
       <use x="114.013672" xlink:href="#LiberationSans-46"/>
       <use x="141.796875" xlink:href="#LiberationSans-53"/>
       <use x="197.412109" xlink:href="#LiberationSans-50"/>
      </g>
     </g>
    </g>
    <g id="ytick_6">
     <g id="line2d_11">
      <g>
       <use style="stroke:#000000;" x="52.13" xlink:href="#m46929ada07" y="45.626667"/>
      </g>
     </g>
     <g id="text_12">
      <!-- 3.51 -->
      <defs>
       <path d="M 7.625 0 
L 7.625 7.46875 
L 25.140625 7.46875 
L 25.140625 60.40625 
L 9.625 49.3125 
L 9.625 57.625 
L 25.875 68.796875 
L 33.984375 68.796875 
L 33.984375 7.46875 
L 50.734375 7.46875 
L 50.734375 0 
z
" id="LiberationSans-49"/>
      </defs>
      <g transform="translate(22.358594 48.88776)scale(0.09 -0.09)">
       <use xlink:href="#LiberationSans-8722"/>
       <use x="58.398438" xlink:href="#LiberationSans-51"/>
       <use x="114.013672" xlink:href="#LiberationSans-46"/>
       <use x="141.796875" xlink:href="#LiberationSans-53"/>
       <use x="197.412109" xlink:href="#LiberationSans-49"/>
      </g>
     </g>
    </g>
    <g id="ytick_7">
     <g id="line2d_12">
      <g>
       <use style="stroke:#000000;" x="52.13" xlink:href="#m46929ada07" y="12.96"/>
      </g>
     </g>
     <g id="text_13">
      <!-- 3.50 -->
      <g transform="translate(22.358594 16.221094)scale(0.09 -0.09)">
       <use xlink:href="#LiberationSans-8722"/>
       <use x="58.398438" xlink:href="#LiberationSans-51"/>
       <use x="114.013672" xlink:href="#LiberationSans-46"/>
       <use x="141.796875" xlink:href="#LiberationSans-53"/>
       <use x="197.412109" xlink:href="#LiberationSans-48"/>
      </g>
     </g>
    </g>
    <g id="text_14">
     <!-- Energy per atom (eV) -->
     <defs>
      <path d="M 8.203125 0 
L 8.203125 68.796875 
L 60.40625 68.796875 
L 60.40625 61.1875 
L 17.53125 61.1875 
L 17.53125 39.109375 
L 57.46875 39.109375 
L 57.46875 31.59375 
L 17.53125 31.59375 
L 17.53125 7.625 
L 62.40625 7.625 
L 62.40625 0 
z
" id="LiberationSans-69"/>
      <path d="M 40.28125 0 
L 40.28125 33.5 
Q 40.28125 37.359375 39.71875 39.9375 
Q 39.15625 42.53125 37.890625 44.109375 
Q 36.625 45.703125 34.546875 46.359375 
Q 32.46875 47.015625 29.390625 47.015625 
Q 26.265625 47.015625 23.75 45.921875 
Q 21.234375 44.828125 19.453125 42.75 
Q 17.671875 40.671875 16.6875 37.625 
Q 15.71875 34.578125 15.71875 30.609375 
L 15.71875 0 
L 6.9375 0 
L 6.9375 41.546875 
Q 6.9375 43.21875 6.90625 45.046875 
Q 6.890625 46.875 6.828125 48.5 
Q 6.78125 50.140625 6.734375 51.3125 
Q 6.6875 52.484375 6.640625 52.828125 
L 14.9375 52.828125 
Q 14.984375 52.59375 15.03125 51.515625 
Q 15.09375 50.4375 15.15625 49.046875 
Q 15.234375 47.65625 15.28125 46.21875 
Q 15.328125 44.78125 15.328125 43.796875 
L 15.484375 43.796875 
Q 16.75 46.09375 18.265625 47.953125 
Q 19.78125 49.8125 21.78125 51.09375 
Q 23.78125 52.390625 26.359375 53.09375 
Q 28.953125 53.8125 32.375 53.8125 
Q 36.765625 53.8125 39.9375 52.734375 
Q 43.109375 51.65625 45.15625 49.40625 
Q 47.21875 47.171875 48.171875 43.625 
Q 49.125 40.09375 49.125 35.203125 
L 49.125 0 
z
" id="LiberationSans-110"/>
      <path d="M 26.765625 -20.75 
Q 22.21875 -20.75 18.703125 -19.8125 
Q 15.1875 -18.890625 12.6875 -17.15625 
Q 10.203125 -15.4375 8.640625 -13.03125 
Q 7.078125 -10.640625 6.390625 -7.71875 
L 15.234375 -6.453125 
Q 16.109375 -10.109375 19.109375 -12.078125 
Q 22.125 -14.0625 27 -14.0625 
Q 29.984375 -14.0625 32.421875 -13.234375 
Q 34.859375 -12.40625 36.5625 -10.5625 
Q 38.28125 -8.734375 39.203125 -5.796875 
Q 40.140625 -2.875 40.140625 1.3125 
L 40.140625 9.8125 
L 40.046875 9.8125 
Q 39.0625 7.8125 37.625 5.984375 
Q 36.1875 4.15625 34.109375 2.734375 
Q 32.03125 1.3125 29.296875 0.453125 
Q 26.5625 -0.390625 23.046875 -0.390625 
Q 18.015625 -0.390625 14.421875 1.296875 
Q 10.84375 2.984375 8.5625 6.34375 
Q 6.296875 9.71875 5.25 14.71875 
Q 4.203125 19.734375 4.203125 26.3125 
Q 4.203125 32.671875 5.25 37.75 
Q 6.296875 42.828125 8.65625 46.359375 
Q 11.03125 49.90625 14.8125 51.78125 
Q 18.609375 53.65625 24.03125 53.65625 
Q 29.640625 53.65625 33.765625 51.09375 
Q 37.890625 48.53125 40.140625 43.796875 
L 40.234375 43.796875 
Q 40.234375 45.015625 40.296875 46.53125 
Q 40.375 48.046875 40.453125 49.390625 
Q 40.53125 50.734375 40.625 51.703125 
Q 40.71875 52.6875 40.828125 52.828125 
L 49.171875 52.828125 
Q 49.125 52.390625 49.078125 51.34375 
Q 49.03125 50.296875 48.96875 48.828125 
Q 48.921875 47.359375 48.890625 45.578125 
Q 48.875 43.796875 48.875 41.890625 
L 48.875 1.515625 
Q 48.875 -9.578125 43.421875 -15.15625 
Q 37.984375 -20.75 26.765625 -20.75 
z
M 40.140625 26.421875 
Q 40.140625 31.9375 38.9375 35.859375 
Q 37.75 39.796875 35.796875 42.28125 
Q 33.84375 44.78125 31.328125 45.953125 
Q 28.8125 47.125 26.171875 47.125 
Q 22.796875 47.125 20.375 45.953125 
Q 17.96875 44.78125 16.375 42.265625 
Q 14.796875 39.75 14.03125 35.8125 
Q 13.28125 31.890625 13.28125 26.421875 
Q 13.28125 20.703125 14.03125 16.8125 
Q 14.796875 12.9375 16.359375 10.546875 
Q 17.921875 8.15625 20.3125 7.125 
Q 22.703125 6.109375 26.03125 6.109375 
Q 28.65625 6.109375 31.171875 7.21875 
Q 33.6875 8.34375 35.6875 10.78125 
Q 37.703125 13.234375 38.921875 17.09375 
Q 40.140625 20.953125 40.140625 26.421875 
z
" id="LiberationSans-103"/>
      <path d="M 29.5 0 
Q 27.640625 -4.78125 25.703125 -8.609375 
Q 23.78125 -12.453125 21.390625 -15.15625 
Q 19 -17.875 16.0625 -19.3125 
Q 13.140625 -20.75 9.328125 -20.75 
Q 7.671875 -20.75 6.25 -20.65625 
Q 4.828125 -20.5625 3.265625 -20.21875 
L 3.265625 -13.625 
Q 4.203125 -13.765625 5.375 -13.84375 
Q 6.546875 -13.921875 7.375 -13.921875 
Q 11.234375 -13.921875 14.546875 -11.03125 
Q 17.875 -8.15625 20.359375 -1.859375 
L 21.1875 0.25 
L 0.25 52.828125 
L 9.625 52.828125 
L 20.75 23.640625 
Q 21.234375 22.3125 21.984375 20.109375 
Q 22.75 17.921875 23.5 15.71875 
Q 24.265625 13.53125 24.84375 11.765625 
Q 25.4375 10.015625 25.53125 9.578125 
Q 25.6875 10.109375 26.25 11.6875 
Q 26.8125 13.28125 27.515625 15.234375 
Q 28.21875 17.1875 28.953125 19.1875 
Q 29.6875 21.1875 30.171875 22.65625 
L 40.53125 52.828125 
L 49.8125 52.828125 
z
" id="LiberationSans-121"/>
      <path d="M 20.21875 -0.984375 
Q 12.25 -0.984375 8.25 3.21875 
Q 4.25 7.421875 4.25 14.75 
Q 4.25 19.96875 6.21875 23.3125 
Q 8.203125 26.65625 11.390625 28.5625 
Q 14.59375 30.46875 18.6875 31.203125 
Q 22.796875 31.9375 27.046875 32.03125 
L 38.921875 32.234375 
L 38.921875 35.109375 
Q 38.921875 38.375 38.234375 40.671875 
Q 37.546875 42.96875 36.125 44.375 
Q 34.71875 45.796875 32.59375 46.453125 
Q 30.46875 47.125 27.59375 47.125 
Q 25.046875 47.125 23 46.75 
Q 20.953125 46.390625 19.4375 45.4375 
Q 17.921875 44.484375 16.984375 42.84375 
Q 16.0625 41.21875 15.765625 38.71875 
L 6.59375 39.546875 
Q 7.078125 42.671875 8.4375 45.28125 
Q 9.8125 47.90625 12.328125 49.796875 
Q 14.84375 51.703125 18.625 52.75 
Q 22.40625 53.8125 27.78125 53.8125 
Q 37.75 53.8125 42.765625 49.234375 
Q 47.796875 44.671875 47.796875 36.03125 
L 47.796875 13.28125 
Q 47.796875 9.375 48.828125 7.390625 
Q 49.859375 5.421875 52.734375 5.421875 
Q 53.46875 5.421875 54.203125 5.515625 
Q 54.9375 5.609375 55.609375 5.765625 
L 55.609375 0.296875 
Q 53.953125 -0.09375 52.3125 -0.28125 
Q 50.6875 -0.484375 48.828125 -0.484375 
Q 46.34375 -0.484375 44.5625 0.171875 
Q 42.78125 0.828125 41.65625 2.171875 
Q 40.53125 3.515625 39.9375 5.484375 
Q 39.359375 7.46875 39.203125 10.109375 
L 38.921875 10.109375 
Q 37.5 7.5625 35.8125 5.515625 
Q 34.125 3.46875 31.875 2.03125 
Q 29.640625 0.59375 26.78125 -0.1875 
Q 23.921875 -0.984375 20.21875 -0.984375 
z
M 22.21875 5.609375 
Q 26.421875 5.609375 29.5625 7.140625 
Q 32.71875 8.6875 34.78125 11.078125 
Q 36.859375 13.484375 37.890625 16.3125 
Q 38.921875 19.140625 38.921875 21.734375 
L 38.921875 26.078125 
L 29.296875 25.875 
Q 26.078125 25.828125 23.171875 25.40625 
Q 20.265625 25 18.0625 23.78125 
Q 15.875 22.5625 14.578125 20.359375 
Q 13.28125 18.171875 13.28125 14.59375 
Q 13.28125 10.296875 15.59375 7.953125 
Q 17.921875 5.609375 22.21875 5.609375 
z
" id="LiberationSans-97"/>
      <path d="M 27.046875 0.390625 
Q 25.046875 -0.140625 22.96875 -0.453125 
Q 20.90625 -0.78125 18.171875 -0.78125 
Q 7.625 -0.78125 7.625 11.1875 
L 7.625 46.4375 
L 1.515625 46.4375 
L 1.515625 52.828125 
L 7.953125 52.828125 
L 10.546875 64.65625 
L 16.40625 64.65625 
L 16.40625 52.828125 
L 26.171875 52.828125 
L 26.171875 46.4375 
L 16.40625 46.4375 
L 16.40625 13.09375 
Q 16.40625 9.28125 17.640625 7.734375 
Q 18.890625 6.203125 21.96875 6.203125 
Q 23.25 6.203125 24.4375 6.390625 
Q 25.640625 6.59375 27.046875 6.890625 
z
" id="LiberationSans-116"/>
     </defs>
     <g transform="translate(16.491094 153.975078)rotate(-90)scale(0.09 -0.09)">
      <use xlink:href="#LiberationSans-69"/>
      <use x="66.699219" xlink:href="#LiberationSans-110"/>
      <use x="122.314453" xlink:href="#LiberationSans-101"/>
      <use x="177.929688" xlink:href="#LiberationSans-114"/>
      <use x="211.230469" xlink:href="#LiberationSans-103"/>
      <use x="266.845703" xlink:href="#LiberationSans-121"/>
      <use x="316.845703" xlink:href="#LiberationSans-32"/>
      <use x="344.628906" xlink:href="#LiberationSans-112"/>
      <use x="400.244141" xlink:href="#LiberationSans-101"/>
      <use x="455.859375" xlink:href="#LiberationSans-114"/>
      <use x="489.160156" xlink:href="#LiberationSans-32"/>
      <use x="516.943359" xlink:href="#LiberationSans-97"/>
      <use x="572.558594" xlink:href="#LiberationSans-116"/>
      <use x="600.341797" xlink:href="#LiberationSans-111"/>
      <use x="655.957031" xlink:href="#LiberationSans-109"/>
      <use x="739.257812" xlink:href="#LiberationSans-32"/>
      <use x="767.041016" xlink:href="#LiberationSans-40"/>
      <use x="800.341797" xlink:href="#LiberationSans-101"/>
      <use x="855.957031" xlink:href="#LiberationSans-86"/>
      <use x="922.65625" xlink:href="#LiberationSans-41"/>
     </g>
    </g>
   </g>
   <g id="patch_3">
    <path d="M 52.13 208.96 
L 52.13 12.96 
" style="fill:none;stroke:#000000;stroke-linecap:square;stroke-linejoin:miter;"/>
   </g>
   <g id="patch_4">
    <path d="M 242.28 208.96 
L 242.28 12.96 
" style="fill:none;stroke:#000000;stroke-linecap:square;stroke-linejoin:miter;"/>
   </g>
   <g id="patch_5">
    <path d="M 52.13 208.96 
L 242.28 208.96 
" style="fill:none;stroke:#000000;stroke-linecap:square;stroke-linejoin:miter;"/>
   </g>
   <g id="patch_6">
    <path d="M 52.13 12.96 
L 242.28 12.96 
" style="fill:none;stroke:#000000;stroke-linecap:square;stroke-linejoin:miter;"/>
   </g>
   <g id="legend_1">
    <g id="patch_7">
     <path d="M 169.83 204.46 
L 235.98 204.46 
Q 237.78 204.46 237.78 202.66 
L 237.78 164.890938 
Q 237.78 163.090937 235.98 163.090937 
L 169.83 163.090937 
Q 168.03 163.090937 168.03 164.890938 
L 168.03 202.66 
Q 168.03 204.46 169.83 204.46 
z
" style="fill:#ffffff;opacity:0.8;stroke:#cccccc;stroke-linejoin:miter;"/>
    </g>
    <g id="PathCollection_4">
     <g>
      <use style="fill:#00a094;stroke:#00a094;" x="178.38" xlink:href="#m603f4973f2" y="170.850625"/>
     </g>
    </g>
    <g id="text_15">
     <!-- $P2_12_12_1$ -->
     <defs>
      <path d="M 16.890625 72.90625 
L 39.703125 72.90625 
Q 49.65625 72.90625 54.875 68.265625 
Q 60.109375 63.625 60.109375 54.6875 
Q 60.109375 42.671875 52.390625 35.984375 
Q 44.671875 29.296875 30.71875 29.296875 
L 18.3125 29.296875 
L 12.59375 0 
L 2.6875 0 
z
M 25.203125 64.796875 
L 19.921875 37.40625 
L 32.328125 37.40625 
Q 40.71875 37.40625 45.203125 41.703125 
Q 49.703125 46 49.703125 54 
Q 49.703125 59.125 46.65625 61.953125 
Q 43.609375 64.796875 38.09375 64.796875 
z
" id="DejaVuSans-Oblique-80"/>
      <path d="M 19.1875 8.296875 
L 53.609375 8.296875 
L 53.609375 0 
L 7.328125 0 
L 7.328125 8.296875 
Q 12.9375 14.109375 22.625 23.890625 
Q 32.328125 33.6875 34.8125 36.53125 
Q 39.546875 41.84375 41.421875 45.53125 
Q 43.3125 49.21875 43.3125 52.78125 
Q 43.3125 58.59375 39.234375 62.25 
Q 35.15625 65.921875 28.609375 65.921875 
Q 23.96875 65.921875 18.8125 64.3125 
Q 13.671875 62.703125 7.8125 59.421875 
L 7.8125 69.390625 
Q 13.765625 71.78125 18.9375 73 
Q 24.125 74.21875 28.421875 74.21875 
Q 39.75 74.21875 46.484375 68.546875 
Q 53.21875 62.890625 53.21875 53.421875 
Q 53.21875 48.921875 51.53125 44.890625 
Q 49.859375 40.875 45.40625 35.40625 
Q 44.1875 33.984375 37.640625 27.21875 
Q 31.109375 20.453125 19.1875 8.296875 
z
" id="DejaVuSans-50"/>
      <path d="M 12.40625 8.296875 
L 28.515625 8.296875 
L 28.515625 63.921875 
L 10.984375 60.40625 
L 10.984375 69.390625 
L 28.421875 72.90625 
L 38.28125 72.90625 
L 38.28125 8.296875 
L 54.390625 8.296875 
L 54.390625 0 
L 12.40625 0 
z
" id="DejaVuSans-49"/>
     </defs>
     <g transform="translate(192.33 173.213125)scale(0.09 -0.09)">
      <use transform="translate(0 0.78125)" xlink:href="#DejaVuSans-Oblique-80"/>
      <use transform="translate(60.302734 0.78125)" xlink:href="#DejaVuSans-50"/>
      <use transform="translate(124.882812 -15.625)scale(0.7)" xlink:href="#DejaVuSans-49"/>
      <use transform="translate(172.15332 0.78125)" xlink:href="#DejaVuSans-50"/>
      <use transform="translate(236.733398 -15.625)scale(0.7)" xlink:href="#DejaVuSans-49"/>
      <use transform="translate(284.003906 0.78125)" xlink:href="#DejaVuSans-50"/>
      <use transform="translate(348.583984 -15.625)scale(0.7)" xlink:href="#DejaVuSans-49"/>
     </g>
    </g>
    <g id="PathCollection_5">
     <g>
      <use style="fill:#eb9222;stroke:#eb9222;" x="178.38" xlink:href="#meef71985bd" y="183.740312"/>
     </g>
    </g>
    <g id="text_16">
     <!-- anti-$\mathrm{PbCl_2}$ -->
     <defs>
      <path d="M 6.6875 64.0625 
L 6.6875 72.46875 
L 15.484375 72.46875 
L 15.484375 64.0625 
z
M 6.6875 0 
L 6.6875 52.828125 
L 15.484375 52.828125 
L 15.484375 0 
z
" id="LiberationSans-105"/>
      <path d="M 4.4375 22.65625 
L 4.4375 30.46875 
L 28.859375 30.46875 
L 28.859375 22.65625 
z
" id="LiberationSans-45"/>
      <path d="M 19.671875 64.796875 
L 19.671875 37.40625 
L 32.078125 37.40625 
Q 38.96875 37.40625 42.71875 40.96875 
Q 46.484375 44.53125 46.484375 51.125 
Q 46.484375 57.671875 42.71875 61.234375 
Q 38.96875 64.796875 32.078125 64.796875 
z
M 9.8125 72.90625 
L 32.078125 72.90625 
Q 44.34375 72.90625 50.609375 67.359375 
Q 56.890625 61.8125 56.890625 51.125 
Q 56.890625 40.328125 50.609375 34.8125 
Q 44.34375 29.296875 32.078125 29.296875 
L 19.671875 29.296875 
L 19.671875 0 
L 9.8125 0 
z
" id="DejaVuSans-80"/>
      <path d="M 48.6875 27.296875 
Q 48.6875 37.203125 44.609375 42.84375 
Q 40.53125 48.484375 33.40625 48.484375 
Q 26.265625 48.484375 22.1875 42.84375 
Q 18.109375 37.203125 18.109375 27.296875 
Q 18.109375 17.390625 22.1875 11.75 
Q 26.265625 6.109375 33.40625 6.109375 
Q 40.53125 6.109375 44.609375 11.75 
Q 48.6875 17.390625 48.6875 27.296875 
z
M 18.109375 46.390625 
Q 20.953125 51.265625 25.265625 53.625 
Q 29.59375 56 35.59375 56 
Q 45.5625 56 51.78125 48.09375 
Q 58.015625 40.1875 58.015625 27.296875 
Q 58.015625 14.40625 51.78125 6.484375 
Q 45.5625 -1.421875 35.59375 -1.421875 
Q 29.59375 -1.421875 25.265625 0.953125 
Q 20.953125 3.328125 18.109375 8.203125 
L 18.109375 0 
L 9.078125 0 
L 9.078125 75.984375 
L 18.109375 75.984375 
z
" id="DejaVuSans-98"/>
      <path d="M 64.40625 67.28125 
L 64.40625 56.890625 
Q 59.421875 61.53125 53.78125 63.8125 
Q 48.140625 66.109375 41.796875 66.109375 
Q 29.296875 66.109375 22.65625 58.46875 
Q 16.015625 50.828125 16.015625 36.375 
Q 16.015625 21.96875 22.65625 14.328125 
Q 29.296875 6.6875 41.796875 6.6875 
Q 48.140625 6.6875 53.78125 8.984375 
Q 59.421875 11.28125 64.40625 15.921875 
L 64.40625 5.609375 
Q 59.234375 2.09375 53.4375 0.328125 
Q 47.65625 -1.421875 41.21875 -1.421875 
Q 24.65625 -1.421875 15.125 8.703125 
Q 5.609375 18.84375 5.609375 36.375 
Q 5.609375 53.953125 15.125 64.078125 
Q 24.65625 74.21875 41.21875 74.21875 
Q 47.75 74.21875 53.53125 72.484375 
Q 59.328125 70.75 64.40625 67.28125 
z
" id="DejaVuSans-67"/>
      <path d="M 9.421875 75.984375 
L 18.40625 75.984375 
L 18.40625 0 
L 9.421875 0 
z
" id="DejaVuSans-108"/>
     </defs>
     <g transform="translate(192.33 186.102812)scale(0.09 -0.09)">
      <use transform="translate(0 0.015625)" xlink:href="#LiberationSans-97"/>
      <use transform="translate(55.615234 0.015625)" xlink:href="#LiberationSans-110"/>
      <use transform="translate(111.230469 0.015625)" xlink:href="#LiberationSans-116"/>
      <use transform="translate(139.013672 0.015625)" xlink:href="#LiberationSans-105"/>
      <use transform="translate(161.230469 0.015625)" xlink:href="#LiberationSans-45"/>
      <use transform="translate(194.53125 0.015625)" xlink:href="#DejaVuSans-80"/>
      <use transform="translate(254.833984 0.015625)" xlink:href="#DejaVuSans-98"/>
      <use transform="translate(318.310547 0.015625)" xlink:href="#DejaVuSans-67"/>
      <use transform="translate(388.134766 0.015625)" xlink:href="#DejaVuSans-108"/>
      <use transform="translate(416.875 -16.390625)scale(0.7)" xlink:href="#DejaVuSans-50"/>
     </g>
    </g>
    <g id="PathCollection_6">
     <g>
      <use style="fill:#097892;stroke:#097892;" x="178.38" xlink:href="#mcb2bcfcd2b" y="196.63"/>
     </g>
    </g>
    <g id="text_17">
     <!-- AIRSS -->
     <defs>
      <path d="M 56.984375 0 
L 49.125 20.125 
L 17.78125 20.125 
L 9.859375 0 
L 0.203125 0 
L 28.265625 68.796875 
L 38.875 68.796875 
L 66.5 0 
z
M 37.5 50.09375 
Q 36.71875 52.046875 36 54.046875 
Q 35.296875 56.0625 34.765625 57.6875 
Q 34.234375 59.328125 33.859375 60.421875 
Q 33.5 61.53125 33.453125 61.765625 
Q 33.34375 61.53125 33 60.40625 
Q 32.671875 59.28125 32.109375 57.609375 
Q 31.546875 55.953125 30.828125 53.953125 
Q 30.125 51.953125 29.390625 50 
L 20.609375 27.390625 
L 46.34375 27.390625 
z
" id="LiberationSans-65"/>
      <path d="M 9.234375 0 
L 9.234375 68.796875 
L 18.5625 68.796875 
L 18.5625 0 
z
" id="LiberationSans-73"/>
      <path d="M 56.84375 0 
L 38.96875 28.5625 
L 17.53125 28.5625 
L 17.53125 0 
L 8.203125 0 
L 8.203125 68.796875 
L 40.578125 68.796875 
Q 46.4375 68.796875 50.953125 67.453125 
Q 55.46875 66.109375 58.546875 63.5625 
Q 61.625 61.03125 63.234375 57.375 
Q 64.84375 53.71875 64.84375 49.125 
Q 64.84375 45.84375 63.890625 42.671875 
Q 62.9375 39.5 60.890625 36.859375 
Q 58.84375 34.234375 55.65625 32.328125 
Q 52.484375 30.421875 48.046875 29.640625 
L 67.578125 0 
z
M 55.46875 49.03125 
Q 55.46875 52.15625 54.390625 54.4375 
Q 53.328125 56.734375 51.265625 58.265625 
Q 49.21875 59.8125 46.28125 60.5625 
Q 43.359375 61.328125 39.65625 61.328125 
L 17.53125 61.328125 
L 17.53125 35.9375 
L 40.046875 35.9375 
Q 44.046875 35.9375 46.96875 36.9375 
Q 49.90625 37.9375 51.78125 39.6875 
Q 53.65625 41.453125 54.5625 43.84375 
Q 55.46875 46.234375 55.46875 49.03125 
z
" id="LiberationSans-82"/>
      <path d="M 62.109375 19 
Q 62.109375 14.65625 60.421875 10.984375 
Q 58.734375 7.328125 55.21875 4.65625 
Q 51.703125 2 46.359375 0.5 
Q 41.015625 -0.984375 33.6875 -0.984375 
Q 20.84375 -0.984375 13.671875 3.515625 
Q 6.5 8.015625 4.546875 16.5 
L 13.578125 18.3125 
Q 14.265625 15.625 15.671875 13.421875 
Q 17.09375 11.234375 19.5 9.640625 
Q 21.921875 8.0625 25.484375 7.171875 
Q 29.046875 6.296875 34.03125 6.296875 
Q 38.1875 6.296875 41.65625 7 
Q 45.125 7.71875 47.609375 9.171875 
Q 50.09375 10.640625 51.484375 12.953125 
Q 52.875 15.28125 52.875 18.5 
Q 52.875 21.875 51.34375 23.96875 
Q 49.8125 26.078125 47.015625 27.4375 
Q 44.234375 28.8125 40.375 29.734375 
Q 36.53125 30.671875 31.84375 31.734375 
Q 28.953125 32.375 26.046875 33.125 
Q 23.140625 33.890625 20.484375 34.9375 
Q 17.828125 35.984375 15.484375 37.390625 
Q 13.140625 38.8125 11.421875 40.796875 
Q 9.71875 42.78125 8.734375 45.390625 
Q 7.765625 48 7.765625 51.421875 
Q 7.765625 56.296875 9.734375 59.78125 
Q 11.71875 63.28125 15.234375 65.53125 
Q 18.75 67.78125 23.53125 68.796875 
Q 28.328125 69.828125 33.890625 69.828125 
Q 40.28125 69.828125 44.8125 68.828125 
Q 49.359375 67.828125 52.484375 65.8125 
Q 55.609375 63.8125 57.484375 60.859375 
Q 59.375 57.90625 60.5 54 
L 51.3125 52.390625 
Q 50.640625 54.890625 49.34375 56.84375 
Q 48.046875 58.796875 45.9375 60.109375 
Q 43.84375 61.421875 40.84375 62.109375 
Q 37.84375 62.796875 33.796875 62.796875 
Q 29 62.796875 25.75 61.9375 
Q 22.515625 61.078125 20.53125 59.609375 
Q 18.5625 58.15625 17.703125 56.171875 
Q 16.84375 54.203125 16.84375 51.90625 
Q 16.84375 48.828125 18.375 46.84375 
Q 19.921875 44.875 22.5625 43.546875 
Q 25.203125 42.234375 28.65625 41.359375 
Q 32.125 40.484375 36.03125 39.59375 
Q 39.203125 38.875 42.359375 38.109375 
Q 45.515625 37.359375 48.390625 36.296875 
Q 51.265625 35.25 53.78125 33.828125 
Q 56.296875 32.421875 58.15625 30.375 
Q 60.015625 28.328125 61.0625 25.53125 
Q 62.109375 22.75 62.109375 19 
z
" id="LiberationSans-83"/>
     </defs>
     <g transform="translate(192.33 198.9925)scale(0.09 -0.09)">
      <use xlink:href="#LiberationSans-65"/>
      <use x="66.699219" xlink:href="#LiberationSans-73"/>
      <use x="94.482422" xlink:href="#LiberationSans-82"/>
      <use x="166.699219" xlink:href="#LiberationSans-83"/>
      <use x="233.398438" xlink:href="#LiberationSans-83"/>
     </g>
    </g>
   </g>
  </g>
 </g>
 <defs>
  <clipPath id="pf25a48be8d">
   <rect height="196" width="190.15" x="52.13" y="12.96"/>
  </clipPath>
 </defs>
</svg>
